<?xml version="1.0" encoding="UTF-8" standalone="no"?>
<!-- Created with Inkscape (http://www.inkscape.org/) -->

<svg
   xmlns:dc="http://purl.org/dc/elements/1.1/"
   xmlns:cc="http://creativecommons.org/ns#"
   xmlns:rdf="http://www.w3.org/1999/02/22-rdf-syntax-ns#"
   xmlns:svg="http://www.w3.org/2000/svg"
   xmlns="http://www.w3.org/2000/svg"
   xmlns:sodipodi="http://sodipodi.sourceforge.net/DTD/sodipodi-0.dtd"
   xmlns:inkscape="http://www.inkscape.org/namespaces/inkscape"
   width="280.25467mm"
   height="197.55556mm"
   viewBox="0 0 993.02836 700"
   id="svg2"
   version="1.1"
   inkscape:version="0.91 r13725"
   sodipodi:docname="background.svg">
  <defs
     id="defs4" />
  <sodipodi:namedview
     id="base"
     pagecolor="#ffffff"
     bordercolor="#666666"
     borderopacity="1.0"
     inkscape:pageopacity="0.0"
     inkscape:pageshadow="2"
     inkscape:zoom="0.49497475"
     inkscape:cx="502.06089"
     inkscape:cy="267.47754"
     inkscape:document-units="px"
     inkscape:current-layer="layer1"
     showgrid="false"
     inkscape:window-width="1024"
     inkscape:window-height="712"
     inkscape:window-x="-4"
     inkscape:window-y="-4"
     inkscape:window-maximized="1"
     fit-margin-top="0"
     fit-margin-left="0"
     fit-margin-right="0"
     fit-margin-bottom="0"
     showguides="false" />
  <metadata
     id="metadata7">
    <rdf:RDF>
      <cc:Work
         rdf:about="">
        <dc:format>image/svg+xml</dc:format>
        <dc:type
           rdf:resource="http://purl.org/dc/dcmitype/StillImage" />
        <dc:title></dc:title>
      </cc:Work>
    </rdf:RDF>
  </metadata>
  <g
     inkscape:label="Layer 1"
     inkscape:groupmode="layer"
     id="layer1"
     transform="translate(83.669342,-263.09753)">
    <rect
       style="opacity:0.98999999;fill:#ff6458;fill-opacity:1;stroke:none;stroke-width:7;stroke-miterlimit:4;stroke-dasharray:none;stroke-dashoffset:0;stroke-opacity:1"
       id="rect4513"
       width="993.02838"
       height="700"
       x="-83.669342"
       y="263.09753"
       rx="2.3066816" />
    <g
       style="opacity:0.117;fill:#ffffff"
       id="Outline"
       transform="matrix(-1.927228,1.5959625,-2.1260765,-2.3474698,179.89678,392.01834)">
      <path
         style="fill:#ffffff"
         id="path5"
         d="m 48.16,44.4 -2.244,1.3 A 8,8 0 0 0 44,44.587 L 44,42 l -6,0 0,2.587"
         inkscape:connector-curvature="0" />
      <path
         style="fill:#ffffff"
         id="path7"
         d="m 41,48 a 4,4 0 1 0 4,4 4,4 0 0 0 -4,-4 z m 0,6 a 2,2 0 1 1 2,-2 2,2 0 0 1 -2,2 z"
         inkscape:connector-curvature="0" />
      <path
         style="fill:#ffffff"
         id="path9"
         d="m 38,2 -12,0 0,20 12,0 z m -2,2 0,12 -8,0 0,-12 z m -4,16 -4,0 0,-2 8,0 0,2 z"
         inkscape:connector-curvature="0" />
      <path
         style="fill:#ffffff"
         id="path11"
         d="M 33,19"
         inkscape:connector-curvature="0" />
      <polygon
         style="fill:#ffffff"
         id="polygon13"
         points="31,28 13,28 13,24 13,24 11,24 11,30 31,30 31,34 33,34 33,30 53,30 53,24 51,24 51,28 33,28 33,24 31,24 " />
      <path
         style="fill:#ffffff"
         id="path15"
         d="m 8,20 -2,0 0,2 12,0 0,-2 -2,0 0,-2 6,0 0,-16 -20,0 0,16 6,0 z m 6,0 -4,0 0,-2 4,0 z M 4,4 20,4 20,12 4,12 Z m 0,12 0,-2 16,0 0,2 z"
         inkscape:connector-curvature="0" />
      <path
         style="fill:#ffffff"
         id="path17"
         d="M 42,22 62,22 62,2 42,2 Z m 18,-2 -16,0 0,-10 16,0 z M 44,4 60,4 60,8 44,8 Z"
         inkscape:connector-curvature="0" />
      <path
         style="fill:#ffffff"
         id="path19"
         d="M 46.55,5.17"
         inkscape:connector-curvature="0" />
      <path
         style="fill:#ffffff"
         id="path21"
         d="M 49.71,5.29"
         inkscape:connector-curvature="0" />
      <path
         style="fill:#ffffff"
         id="path23"
         d="M 52.71,5.29"
         inkscape:connector-curvature="0" />
    </g>
    <g
       transform="matrix(1.5545406,-1.9322428,2.5740553,1.8935161,643.69463,871.9954)"
       id="g4541"
       style="opacity:0.117;fill:#ffffff">
      <path
         inkscape:connector-curvature="0"
         d="m 48.16,44.4 -2.244,1.3 A 8,8 0 0 0 44,44.587 L 44,42 l -6,0 0,2.587"
         id="path4543"
         style="fill:#ffffff" />
      <path
         inkscape:connector-curvature="0"
         d="m 41,48 a 4,4 0 1 0 4,4 4,4 0 0 0 -4,-4 z m 0,6 a 2,2 0 1 1 2,-2 2,2 0 0 1 -2,2 z"
         id="path4545"
         style="fill:#ffffff" />
      <path
         inkscape:connector-curvature="0"
         d="m 38,2 -12,0 0,20 12,0 z m -2,2 0,12 -8,0 0,-12 z m -4,16 -4,0 0,-2 8,0 0,2 z"
         id="path4547"
         style="fill:#ffffff" />
      <path
         inkscape:connector-curvature="0"
         d="M 33,19"
         id="path4549"
         style="fill:#ffffff" />
      <polygon
         points="13,24 11,24 11,30 31,30 31,34 33,34 33,30 53,30 53,24 51,24 51,28 33,28 33,24 31,24 31,28 13,28 13,24 "
         id="polygon4551"
         style="fill:#ffffff" />
      <path
         inkscape:connector-curvature="0"
         d="m 8,20 -2,0 0,2 12,0 0,-2 -2,0 0,-2 6,0 0,-16 -20,0 0,16 6,0 z m 6,0 -4,0 0,-2 4,0 z M 4,4 20,4 20,12 4,12 Z m 0,12 0,-2 16,0 0,2 z"
         id="path4553"
         style="fill:#ffffff" />
      <path
         inkscape:connector-curvature="0"
         d="M 42,22 62,22 62,2 42,2 Z m 18,-2 -16,0 0,-10 16,0 z M 44,4 60,4 60,8 44,8 Z"
         id="path4555"
         style="fill:#ffffff" />
      <path
         inkscape:connector-curvature="0"
         d="M 46.55,5.17"
         id="path4557"
         style="fill:#ffffff" />
      <path
         inkscape:connector-curvature="0"
         d="M 49.71,5.29"
         id="path4559"
         style="fill:#ffffff" />
      <path
         inkscape:connector-curvature="0"
         d="M 52.71,5.29"
         id="path4561"
         style="fill:#ffffff" />
    </g>
    <g
       style="opacity:0.17300002;fill:#ffffff"
       id="g4563"
       transform="matrix(-1.4819574,-1.9837045,2.6426102,-1.8051058,761.24182,505.09474)">
      <path
         style="fill:#ffffff"
         id="path4565"
         d="m 48.16,44.4 -2.244,1.3 A 8,8 0 0 0 44,44.587 L 44,42 l -6,0 0,2.587"
         inkscape:connector-curvature="0" />
      <path
         style="fill:#ffffff"
         id="path4567"
         d="m 41,48 a 4,4 0 1 0 4,4 4,4 0 0 0 -4,-4 z m 0,6 a 2,2 0 1 1 2,-2 2,2 0 0 1 -2,2 z"
         inkscape:connector-curvature="0" />
      <path
         style="fill:#ffffff"
         id="path4569"
         d="m 38,2 -12,0 0,20 12,0 z m -2,2 0,12 -8,0 0,-12 z m -4,16 -4,0 0,-2 8,0 0,2 z"
         inkscape:connector-curvature="0" />
      <path
         style="fill:#ffffff"
         id="path4571"
         d="M 33,19"
         inkscape:connector-curvature="0" />
      <polygon
         style="fill:#ffffff"
         id="polygon4573"
         points="31,30 31,34 33,34 33,30 53,30 53,24 51,24 51,28 33,28 33,24 31,24 31,28 13,28 13,24 13,24 11,24 11,30 " />
      <path
         style="fill:#ffffff"
         id="path4575"
         d="m 8,20 -2,0 0,2 12,0 0,-2 -2,0 0,-2 6,0 0,-16 -20,0 0,16 6,0 z m 6,0 -4,0 0,-2 4,0 z M 4,4 20,4 20,12 4,12 Z m 0,12 0,-2 16,0 0,2 z"
         inkscape:connector-curvature="0" />
      <path
         style="fill:#ffffff"
         id="path4577"
         d="M 42,22 62,22 62,2 42,2 Z m 18,-2 -16,0 0,-10 16,0 z M 44,4 60,4 60,8 44,8 Z"
         inkscape:connector-curvature="0" />
      <path
         style="fill:#ffffff"
         id="path4579"
         d="M 46.55,5.17"
         inkscape:connector-curvature="0" />
      <path
         style="fill:#ffffff"
         id="path4581"
         d="M 49.71,5.29"
         inkscape:connector-curvature="0" />
      <path
         style="fill:#ffffff"
         id="path4583"
         d="M 52.71,5.29"
         inkscape:connector-curvature="0" />
    </g>
    <g
       transform="matrix(1.6508241,1.8577872,-2.4748684,2.0107948,56.145485,705.33118)"
       id="g4585"
       style="opacity:0.117;fill:#ffffff">
      <path
         inkscape:connector-curvature="0"
         d="m 48.16,44.4 -2.244,1.3 A 8,8 0 0 0 44,44.587 L 44,42 l -6,0 0,2.587"
         id="path4587"
         style="fill:#ffffff" />
      <path
         inkscape:connector-curvature="0"
         d="m 41,48 a 4,4 0 1 0 4,4 4,4 0 0 0 -4,-4 z m 0,6 a 2,2 0 1 1 2,-2 2,2 0 0 1 -2,2 z"
         id="path4589"
         style="fill:#ffffff" />
      <path
         inkscape:connector-curvature="0"
         d="m 38,2 -12,0 0,20 12,0 z m -2,2 0,12 -8,0 0,-12 z m -4,16 -4,0 0,-2 8,0 0,2 z"
         id="path4591"
         style="fill:#ffffff" />
      <path
         inkscape:connector-curvature="0"
         d="M 33,19"
         id="path4593"
         style="fill:#ffffff" />
      <polygon
         points="33,30 53,30 53,24 51,24 51,28 33,28 33,24 31,24 31,28 13,28 13,24 13,24 11,24 11,30 31,30 31,34 33,34 "
         id="polygon4595"
         style="fill:#ffffff" />
      <path
         inkscape:connector-curvature="0"
         d="m 8,20 -2,0 0,2 12,0 0,-2 -2,0 0,-2 6,0 0,-16 -20,0 0,16 6,0 z m 6,0 -4,0 0,-2 4,0 z M 4,4 20,4 20,12 4,12 Z m 0,12 0,-2 16,0 0,2 z"
         id="path4597"
         style="fill:#ffffff" />
      <path
         inkscape:connector-curvature="0"
         d="M 42,22 62,22 62,2 42,2 Z m 18,-2 -16,0 0,-10 16,0 z M 44,4 60,4 60,8 44,8 Z"
         id="path4599"
         style="fill:#ffffff" />
      <path
         inkscape:connector-curvature="0"
         d="M 46.55,5.17"
         id="path4601"
         style="fill:#ffffff" />
      <path
         inkscape:connector-curvature="0"
         d="M 49.71,5.29"
         id="path4603"
         style="fill:#ffffff" />
      <path
         inkscape:connector-curvature="0"
         d="M 52.71,5.29"
         id="path4605"
         style="fill:#ffffff" />
    </g>
    <g
       style="opacity:0.203;fill:#ffffff"
       id="g5749"
       transform="matrix(-0.13753478,-0.13468375,0.12408294,-0.11585644,326.56028,905.51109)">
      <path
         d="m 424.391,230.636 0,-22.333 c 19.195,-17.646 30.279,-42.417 30.643,-68.488 0.824,-51.792 -40.518,-95.493 -92.055,-97.214 -25.316,-0.822 -49.94,8.342 -68.559,25.514 l -3.318,0 -15.191,-18.251 C 267.592,39.811 255.196,34.029 242.147,34.115 l -29.52,0 c -13.048,-0.087 -25.444,5.695 -33.763,15.748 l -15.192,18.252 -2.844,0 C 142.98,51.815 119.725,42.706 95.554,42.55 42.792,42.619 0.044,85.388 0,138.15 c 0,26.29 11.391,51.72 30.391,70.056 l 0,95.668 c 0,26.955 21.72,49.241 48.674,49.241 l 16.293,0 c 24.669,-0.116 45.426,-18.511 48.505,-42.988 l 6.355,-50.726 c 2.327,-18.442 18.007,-32.276 36.595,-32.286 l 0.119,0 81.563,0.19 c 11.623,0.013 22.556,5.517 29.49,14.844 -29.409,22.384 -46.677,57.218 -46.685,94.177 0,65.411 53.291,118.613 118.794,118.613 65.503,0 118.96,-53.222 118.96,-118.632 0,-46.02 -26.663,-86.01 -64.663,-105.671 z M 188.123,57.496 c 6.043,-7.283 15.041,-11.462 24.504,-11.381 l 29.52,0 c 9.464,-0.081 18.462,4.098 24.505,11.382 l 8.898,10.618 -96.325,0 z m 80.413,157.809 -81.563,-0.19 -0.159,0 c -24.619,-0.02 -45.405,18.283 -48.5,42.706 l -6.354,50.866 c -2.324,18.468 -17.988,32.346 -36.602,32.428 l -16.293,0 c -20.338,0 -36.674,-16.9 -36.674,-37.241 l 0,-98.29 C 42.352,203.869 41.593,202.251 40.3,201.124 22.378,185.116 12.076,162.265 11.947,138.235 12.008,92.047 49.5,54.655 95.687,54.716 c 21.679,0.029 42.5,8.475 58.073,23.557 0.1,0.093 0.19,0.027 0.284,0.125 1.149,1.156 2.729,1.778 4.357,1.717 l 138.434,0 c 1.556,0.06 3.072,-0.502 4.213,-1.562 16.287,-16.129 38.539,-24.774 61.443,-23.873 45.039,1.5 81.094,39.616 80.374,84.907 -0.384,24.181 -10.409,46 -28.53,61.405 -1.296,1.167 -2.008,2.849 -1.944,4.592 l 0,19.741 c -34.483,-12.993 -73.038,-9.297 -104.425,10.01 -9.206,-12.572 -23.848,-20.01 -39.43,-20.03 z m 101.555,227.622 c -58.887,0 -106.794,-47.833 -106.794,-106.627 0,-58.794 47.91,-106.626 106.794,-106.626 58.884,0 106.8,47.832 106.8,106.626 0,58.794 -47.911,106.627 -106.8,106.627 z"
         id="path3"
         style="fill:#ffffff"
         inkscape:connector-curvature="0" />
      <path
         style="fill:#ffffff"
         d="m 347.755,293.428 c -2.051,-2.602 -5.822,-3.05 -8.425,-1 l -49.375,38.849 c -2.604,2.049 -3.054,5.822 -1.004,8.426 0.294,0.373 0.631,0.711 1.004,1.004 l 49.375,38.849 c 2.604,2.049 6.377,1.599 8.426,-1.005 2.049,-2.604 1.599,-6.377 -1.005,-8.426 l -43.382,-34.133 43.382,-34.133 c 2.605,-2.048 3.057,-5.82 1.01,-8.425 -0.003,-0.002 -0.004,-0.004 -0.006,-0.006 z"
         id="path5-2"
         inkscape:connector-curvature="0" />
      <path
         style="fill:#ffffff"
         d="m 392.432,293.428 c -2.051,2.603 -1.603,6.375 1,8.426 l 43.382,34.133 -43.382,34.133 c -2.604,2.049 -3.054,5.821 -1.005,8.426 2.049,2.605 5.821,3.054 8.426,1.005 l 49.375,-38.849 c 2.604,-2.049 3.054,-5.822 1.004,-8.426 -0.294,-0.373 -0.631,-0.711 -1.004,-1.004 l -49.375,-38.849 c -2.604,-2.045 -6.372,-1.595 -8.421,1.005 z"
         id="path7-5"
         inkscape:connector-curvature="0" />
      <path
         style="fill:#ffffff"
         d="m 379.713,272.181 c -3.276,-0.496 -6.335,1.758 -6.831,5.034 l 0,0.001 -17.537,115.873 c -0.497,3.276 1.756,6.335 5.033,6.832 3.277,0.497 6.335,-1.756 6.832,-5.033 l 17.537,-115.874 c 0.498,-3.276 -1.754,-6.336 -5.03,-6.833 -0.002,0.001 -0.003,0.001 -0.004,0 z"
         id="path9-5"
         inkscape:connector-curvature="0" />
      <path
         style="fill:#ffffff"
         d="m 98.631,80.346 c -31.833,0 -57.639,25.806 -57.639,57.639 0,31.833 25.806,57.639 57.639,57.639 31.833,0 57.639,-25.806 57.639,-57.639 C 156.236,106.166 130.45,80.38 98.631,80.346 Z m 0,103.278 c -25.206,0 -45.639,-20.433 -45.639,-45.639 0,-25.206 20.433,-45.639 45.639,-45.639 25.206,0 45.639,20.433 45.639,45.639 -0.028,25.195 -20.445,45.611 -45.639,45.639 z"
         id="path11-0"
         inkscape:connector-curvature="0" />
      <path
         style="fill:#ffffff"
         d="m 378.464,181.279 c 0.156,-12.34 -9.721,-22.47 -22.061,-22.626 -12.34,-0.156 -22.47,9.721 -22.626,22.061 -0.075,5.955 2.229,11.693 6.402,15.941 4.167,4.198 9.857,6.528 15.771,6.46 l 0.153,0 c 5.857,0.084 11.506,-2.167 15.7,-6.255 4.233,-4.081 6.635,-9.701 6.661,-15.581 z m -15.084,7.241 c -4.074,4.019 -10.635,3.974 -14.654,-0.1 -4.019,-4.074 -3.974,-10.635 0.1,-14.654 4.074,-4.019 10.635,-3.974 14.654,0.1 1.929,1.956 3.003,4.598 2.985,7.346 -0.009,2.751 -1.12,5.383 -3.085,7.308 z"
         id="path13"
         inkscape:connector-curvature="0" />
      <path
         style="fill:#ffffff"
         d="m 380.448,157.115 c 8.676,8.792 22.836,8.886 31.628,0.211 8.792,-8.676 8.886,-22.836 0.211,-31.628 -8.675,-8.792 -22.836,-8.886 -31.628,-0.211 -4.222,4.166 -6.616,9.839 -6.656,15.77 -0.047,5.933 2.273,11.64 6.445,15.858 z m 8.64,-23.051 c 1.939,-1.909 4.557,-2.97 7.278,-2.949 l 0.071,0 c 2.748,-0.01 5.383,1.09 7.308,3.051 4.02,4.075 3.975,10.637 -0.1,14.657 -4.075,4.02 -10.637,3.975 -14.657,-0.1 -4.019,-4.075 -3.975,-10.636 0.1,-14.656 z"
         id="path15-7"
         inkscape:connector-curvature="0" />
      <path
         style="fill:#ffffff"
         d="m 332.045,125.46 c -8.734,-8.734 -22.895,-8.734 -31.629,0 -8.734,8.734 -8.734,22.895 0,31.629 8.734,8.734 22.895,8.734 31.629,0 8.719,-8.74 8.719,-22.888 0,-31.629 z m -8.485,23.143 c -4.048,4.044 -10.607,4.041 -14.651,-0.007 -4.044,-4.048 -4.041,-10.607 0.007,-14.651 4.045,-4.041 10.599,-4.041 14.645,0 4.048,3.997 4.089,10.518 0.092,14.566 -0.032,0.031 -0.062,0.062 -0.093,0.092 z"
         id="path17-3"
         inkscape:connector-curvature="0" />
      <path
         style="fill:#ffffff"
         d="m 356.233,123.637 c 12.351,-0.001 22.362,-10.014 22.361,-22.365 -10e-4,-12.351 -10.014,-22.362 -22.365,-22.361 -12.351,0.001 -22.362,10.014 -22.361,22.365 0,5.93 2.357,11.618 6.55,15.811 4.185,4.208 9.88,6.567 15.815,6.55 z m -7.329,-29.694 c 4.048,-4.047 10.61,-4.047 14.657,0.001 4.047,4.048 4.047,10.61 -10e-4,14.657 -4.048,4.047 -10.61,4.047 -14.657,-0.001 -1.943,-1.944 -3.035,-4.579 -3.035,-7.328 -0.008,-2.75 1.085,-5.389 3.036,-7.329 z"
         id="path19-7"
         inkscape:connector-curvature="0" />
      <path
         style="fill:#ffffff"
         d="m 261.391,175.115 -68,0 c -3.314,0 -6,2.686 -6,6 0,3.314 2.686,6 6,6 l 68,0 c 3.314,0 6,-2.686 6,-6 0,-3.314 -2.686,-6 -6,-6 z"
         id="path21-0"
         inkscape:connector-curvature="0" />
    </g>
    <g
       transform="matrix(0.18390619,-0.06716222,0.06187597,0.15491876,212.98906,542.85877)"
       id="g4633"
       style="opacity:0.203;fill:#ffffff">
      <path
         inkscape:connector-curvature="0"
         style="fill:#ffffff"
         id="path4635"
         d="m 424.391,230.636 0,-22.333 c 19.195,-17.646 30.279,-42.417 30.643,-68.488 0.824,-51.792 -40.518,-95.493 -92.055,-97.214 -25.316,-0.822 -49.94,8.342 -68.559,25.514 l -3.318,0 -15.191,-18.251 C 267.592,39.811 255.196,34.029 242.147,34.115 l -29.52,0 c -13.048,-0.087 -25.444,5.695 -33.763,15.748 l -15.192,18.252 -2.844,0 C 142.98,51.815 119.725,42.706 95.554,42.55 42.792,42.619 0.044,85.388 0,138.15 c 0,26.29 11.391,51.72 30.391,70.056 l 0,95.668 c 0,26.955 21.72,49.241 48.674,49.241 l 16.293,0 c 24.669,-0.116 45.426,-18.511 48.505,-42.988 l 6.355,-50.726 c 2.327,-18.442 18.007,-32.276 36.595,-32.286 l 0.119,0 81.563,0.19 c 11.623,0.013 22.556,5.517 29.49,14.844 -29.409,22.384 -46.677,57.218 -46.685,94.177 0,65.411 53.291,118.613 118.794,118.613 65.503,0 118.96,-53.222 118.96,-118.632 0,-46.02 -26.663,-86.01 -64.663,-105.671 z M 188.123,57.496 c 6.043,-7.283 15.041,-11.462 24.504,-11.381 l 29.52,0 c 9.464,-0.081 18.462,4.098 24.505,11.382 l 8.898,10.618 -96.325,0 z m 80.413,157.809 -81.563,-0.19 -0.159,0 c -24.619,-0.02 -45.405,18.283 -48.5,42.706 l -6.354,50.866 c -2.324,18.468 -17.988,32.346 -36.602,32.428 l -16.293,0 c -20.338,0 -36.674,-16.9 -36.674,-37.241 l 0,-98.29 C 42.352,203.869 41.593,202.251 40.3,201.124 22.378,185.116 12.076,162.265 11.947,138.235 12.008,92.047 49.5,54.655 95.687,54.716 c 21.679,0.029 42.5,8.475 58.073,23.557 0.1,0.093 0.19,0.027 0.284,0.125 1.149,1.156 2.729,1.778 4.357,1.717 l 138.434,0 c 1.556,0.06 3.072,-0.502 4.213,-1.562 16.287,-16.129 38.539,-24.774 61.443,-23.873 45.039,1.5 81.094,39.616 80.374,84.907 -0.384,24.181 -10.409,46 -28.53,61.405 -1.296,1.167 -2.008,2.849 -1.944,4.592 l 0,19.741 c -34.483,-12.993 -73.038,-9.297 -104.425,10.01 -9.206,-12.572 -23.848,-20.01 -39.43,-20.03 z m 101.555,227.622 c -58.887,0 -106.794,-47.833 -106.794,-106.627 0,-58.794 47.91,-106.626 106.794,-106.626 58.884,0 106.8,47.832 106.8,106.626 0,58.794 -47.911,106.627 -106.8,106.627 z" />
      <path
         inkscape:connector-curvature="0"
         id="path4637"
         d="m 347.755,293.428 c -2.051,-2.602 -5.822,-3.05 -8.425,-1 l -49.375,38.849 c -2.604,2.049 -3.054,5.822 -1.004,8.426 0.294,0.373 0.631,0.711 1.004,1.004 l 49.375,38.849 c 2.604,2.049 6.377,1.599 8.426,-1.005 2.049,-2.604 1.599,-6.377 -1.005,-8.426 l -43.382,-34.133 43.382,-34.133 c 2.605,-2.048 3.057,-5.82 1.01,-8.425 -0.003,-0.002 -0.004,-0.004 -0.006,-0.006 z"
         style="fill:#ffffff" />
      <path
         inkscape:connector-curvature="0"
         id="path4639"
         d="m 392.432,293.428 c -2.051,2.603 -1.603,6.375 1,8.426 l 43.382,34.133 -43.382,34.133 c -2.604,2.049 -3.054,5.821 -1.005,8.426 2.049,2.605 5.821,3.054 8.426,1.005 l 49.375,-38.849 c 2.604,-2.049 3.054,-5.822 1.004,-8.426 -0.294,-0.373 -0.631,-0.711 -1.004,-1.004 l -49.375,-38.849 c -2.604,-2.045 -6.372,-1.595 -8.421,1.005 z"
         style="fill:#ffffff" />
      <path
         inkscape:connector-curvature="0"
         id="path4641"
         d="m 379.713,272.181 c -3.276,-0.496 -6.335,1.758 -6.831,5.034 l 0,0.001 -17.537,115.873 c -0.497,3.276 1.756,6.335 5.033,6.832 3.277,0.497 6.335,-1.756 6.832,-5.033 l 17.537,-115.874 c 0.498,-3.276 -1.754,-6.336 -5.03,-6.833 -0.002,0.001 -0.003,0.001 -0.004,0 z"
         style="fill:#ffffff" />
      <path
         inkscape:connector-curvature="0"
         id="path4643"
         d="m 98.631,80.346 c -31.833,0 -57.639,25.806 -57.639,57.639 0,31.833 25.806,57.639 57.639,57.639 31.833,0 57.639,-25.806 57.639,-57.639 C 156.236,106.166 130.45,80.38 98.631,80.346 Z m 0,103.278 c -25.206,0 -45.639,-20.433 -45.639,-45.639 0,-25.206 20.433,-45.639 45.639,-45.639 25.206,0 45.639,20.433 45.639,45.639 -0.028,25.195 -20.445,45.611 -45.639,45.639 z"
         style="fill:#ffffff" />
      <path
         inkscape:connector-curvature="0"
         id="path4645"
         d="m 378.464,181.279 c 0.156,-12.34 -9.721,-22.47 -22.061,-22.626 -12.34,-0.156 -22.47,9.721 -22.626,22.061 -0.075,5.955 2.229,11.693 6.402,15.941 4.167,4.198 9.857,6.528 15.771,6.46 l 0.153,0 c 5.857,0.084 11.506,-2.167 15.7,-6.255 4.233,-4.081 6.635,-9.701 6.661,-15.581 z m -15.084,7.241 c -4.074,4.019 -10.635,3.974 -14.654,-0.1 -4.019,-4.074 -3.974,-10.635 0.1,-14.654 4.074,-4.019 10.635,-3.974 14.654,0.1 1.929,1.956 3.003,4.598 2.985,7.346 -0.009,2.751 -1.12,5.383 -3.085,7.308 z"
         style="fill:#ffffff" />
      <path
         inkscape:connector-curvature="0"
         id="path4647"
         d="m 380.448,157.115 c 8.676,8.792 22.836,8.886 31.628,0.211 8.792,-8.676 8.886,-22.836 0.211,-31.628 -8.675,-8.792 -22.836,-8.886 -31.628,-0.211 -4.222,4.166 -6.616,9.839 -6.656,15.77 -0.047,5.933 2.273,11.64 6.445,15.858 z m 8.64,-23.051 c 1.939,-1.909 4.557,-2.97 7.278,-2.949 l 0.071,0 c 2.748,-0.01 5.383,1.09 7.308,3.051 4.02,4.075 3.975,10.637 -0.1,14.657 -4.075,4.02 -10.637,3.975 -14.657,-0.1 -4.019,-4.075 -3.975,-10.636 0.1,-14.656 z"
         style="fill:#ffffff" />
      <path
         inkscape:connector-curvature="0"
         id="path4649"
         d="m 332.045,125.46 c -8.734,-8.734 -22.895,-8.734 -31.629,0 -8.734,8.734 -8.734,22.895 0,31.629 8.734,8.734 22.895,8.734 31.629,0 8.719,-8.74 8.719,-22.888 0,-31.629 z m -8.485,23.143 c -4.048,4.044 -10.607,4.041 -14.651,-0.007 -4.044,-4.048 -4.041,-10.607 0.007,-14.651 4.045,-4.041 10.599,-4.041 14.645,0 4.048,3.997 4.089,10.518 0.092,14.566 -0.032,0.031 -0.062,0.062 -0.093,0.092 z"
         style="fill:#ffffff" />
      <path
         inkscape:connector-curvature="0"
         id="path4651"
         d="m 356.233,123.637 c 12.351,-0.001 22.362,-10.014 22.361,-22.365 -10e-4,-12.351 -10.014,-22.362 -22.365,-22.361 -12.351,0.001 -22.362,10.014 -22.361,22.365 0,5.93 2.357,11.618 6.55,15.811 4.185,4.208 9.88,6.567 15.815,6.55 z m -7.329,-29.694 c 4.048,-4.047 10.61,-4.047 14.657,0.001 4.047,4.048 4.047,10.61 -10e-4,14.657 -4.048,4.047 -10.61,4.047 -14.657,-0.001 -1.943,-1.944 -3.035,-4.579 -3.035,-7.328 -0.008,-2.75 1.085,-5.389 3.036,-7.329 z"
         style="fill:#ffffff" />
      <path
         inkscape:connector-curvature="0"
         id="path4653"
         d="m 261.391,175.115 -68,0 c -3.314,0 -6,2.686 -6,6 0,3.314 2.686,6 6,6 l 68,0 c 3.314,0 6,-2.686 6,-6 0,-3.314 -2.686,-6 -6,-6 z"
         style="fill:#ffffff" />
    </g>
    <g
       style="opacity:0.203;fill:#ffffff"
       id="g4655"
       transform="matrix(0.19214794,-0.04094985,0.03772673,0.16186144,17.236935,571.66817)">
      <path
         d="m 424.391,230.636 0,-22.333 c 19.195,-17.646 30.279,-42.417 30.643,-68.488 0.824,-51.792 -40.518,-95.493 -92.055,-97.214 -25.316,-0.822 -49.94,8.342 -68.559,25.514 l -3.318,0 -15.191,-18.251 C 267.592,39.811 255.196,34.029 242.147,34.115 l -29.52,0 c -13.048,-0.087 -25.444,5.695 -33.763,15.748 l -15.192,18.252 -2.844,0 C 142.98,51.815 119.725,42.706 95.554,42.55 42.792,42.619 0.044,85.388 0,138.15 c 0,26.29 11.391,51.72 30.391,70.056 l 0,95.668 c 0,26.955 21.72,49.241 48.674,49.241 l 16.293,0 c 24.669,-0.116 45.426,-18.511 48.505,-42.988 l 6.355,-50.726 c 2.327,-18.442 18.007,-32.276 36.595,-32.286 l 0.119,0 81.563,0.19 c 11.623,0.013 22.556,5.517 29.49,14.844 -29.409,22.384 -46.677,57.218 -46.685,94.177 0,65.411 53.291,118.613 118.794,118.613 65.503,0 118.96,-53.222 118.96,-118.632 0,-46.02 -26.663,-86.01 -64.663,-105.671 z M 188.123,57.496 c 6.043,-7.283 15.041,-11.462 24.504,-11.381 l 29.52,0 c 9.464,-0.081 18.462,4.098 24.505,11.382 l 8.898,10.618 -96.325,0 z m 80.413,157.809 -81.563,-0.19 -0.159,0 c -24.619,-0.02 -45.405,18.283 -48.5,42.706 l -6.354,50.866 c -2.324,18.468 -17.988,32.346 -36.602,32.428 l -16.293,0 c -20.338,0 -36.674,-16.9 -36.674,-37.241 l 0,-98.29 C 42.352,203.869 41.593,202.251 40.3,201.124 22.378,185.116 12.076,162.265 11.947,138.235 12.008,92.047 49.5,54.655 95.687,54.716 c 21.679,0.029 42.5,8.475 58.073,23.557 0.1,0.093 0.19,0.027 0.284,0.125 1.149,1.156 2.729,1.778 4.357,1.717 l 138.434,0 c 1.556,0.06 3.072,-0.502 4.213,-1.562 16.287,-16.129 38.539,-24.774 61.443,-23.873 45.039,1.5 81.094,39.616 80.374,84.907 -0.384,24.181 -10.409,46 -28.53,61.405 -1.296,1.167 -2.008,2.849 -1.944,4.592 l 0,19.741 c -34.483,-12.993 -73.038,-9.297 -104.425,10.01 -9.206,-12.572 -23.848,-20.01 -39.43,-20.03 z m 101.555,227.622 c -58.887,0 -106.794,-47.833 -106.794,-106.627 0,-58.794 47.91,-106.626 106.794,-106.626 58.884,0 106.8,47.832 106.8,106.626 0,58.794 -47.911,106.627 -106.8,106.627 z"
         id="path4657"
         style="fill:#ffffff"
         inkscape:connector-curvature="0" />
      <path
         style="fill:#ffffff"
         d="m 347.755,293.428 c -2.051,-2.602 -5.822,-3.05 -8.425,-1 l -49.375,38.849 c -2.604,2.049 -3.054,5.822 -1.004,8.426 0.294,0.373 0.631,0.711 1.004,1.004 l 49.375,38.849 c 2.604,2.049 6.377,1.599 8.426,-1.005 2.049,-2.604 1.599,-6.377 -1.005,-8.426 l -43.382,-34.133 43.382,-34.133 c 2.605,-2.048 3.057,-5.82 1.01,-8.425 -0.003,-0.002 -0.004,-0.004 -0.006,-0.006 z"
         id="path4659"
         inkscape:connector-curvature="0" />
      <path
         style="fill:#ffffff"
         d="m 392.432,293.428 c -2.051,2.603 -1.603,6.375 1,8.426 l 43.382,34.133 -43.382,34.133 c -2.604,2.049 -3.054,5.821 -1.005,8.426 2.049,2.605 5.821,3.054 8.426,1.005 l 49.375,-38.849 c 2.604,-2.049 3.054,-5.822 1.004,-8.426 -0.294,-0.373 -0.631,-0.711 -1.004,-1.004 l -49.375,-38.849 c -2.604,-2.045 -6.372,-1.595 -8.421,1.005 z"
         id="path4661"
         inkscape:connector-curvature="0" />
      <path
         style="fill:#ffffff"
         d="m 379.713,272.181 c -3.276,-0.496 -6.335,1.758 -6.831,5.034 l 0,0.001 -17.537,115.873 c -0.497,3.276 1.756,6.335 5.033,6.832 3.277,0.497 6.335,-1.756 6.832,-5.033 l 17.537,-115.874 c 0.498,-3.276 -1.754,-6.336 -5.03,-6.833 -0.002,0.001 -0.003,0.001 -0.004,0 z"
         id="path4663"
         inkscape:connector-curvature="0" />
      <path
         style="fill:#ffffff"
         d="m 98.631,80.346 c -31.833,0 -57.639,25.806 -57.639,57.639 0,31.833 25.806,57.639 57.639,57.639 31.833,0 57.639,-25.806 57.639,-57.639 C 156.236,106.166 130.45,80.38 98.631,80.346 Z m 0,103.278 c -25.206,0 -45.639,-20.433 -45.639,-45.639 0,-25.206 20.433,-45.639 45.639,-45.639 25.206,0 45.639,20.433 45.639,45.639 -0.028,25.195 -20.445,45.611 -45.639,45.639 z"
         id="path4665"
         inkscape:connector-curvature="0" />
      <path
         style="fill:#ffffff"
         d="m 378.464,181.279 c 0.156,-12.34 -9.721,-22.47 -22.061,-22.626 -12.34,-0.156 -22.47,9.721 -22.626,22.061 -0.075,5.955 2.229,11.693 6.402,15.941 4.167,4.198 9.857,6.528 15.771,6.46 l 0.153,0 c 5.857,0.084 11.506,-2.167 15.7,-6.255 4.233,-4.081 6.635,-9.701 6.661,-15.581 z m -15.084,7.241 c -4.074,4.019 -10.635,3.974 -14.654,-0.1 -4.019,-4.074 -3.974,-10.635 0.1,-14.654 4.074,-4.019 10.635,-3.974 14.654,0.1 1.929,1.956 3.003,4.598 2.985,7.346 -0.009,2.751 -1.12,5.383 -3.085,7.308 z"
         id="path4667"
         inkscape:connector-curvature="0" />
      <path
         style="fill:#ffffff"
         d="m 380.448,157.115 c 8.676,8.792 22.836,8.886 31.628,0.211 8.792,-8.676 8.886,-22.836 0.211,-31.628 -8.675,-8.792 -22.836,-8.886 -31.628,-0.211 -4.222,4.166 -6.616,9.839 -6.656,15.77 -0.047,5.933 2.273,11.64 6.445,15.858 z m 8.64,-23.051 c 1.939,-1.909 4.557,-2.97 7.278,-2.949 l 0.071,0 c 2.748,-0.01 5.383,1.09 7.308,3.051 4.02,4.075 3.975,10.637 -0.1,14.657 -4.075,4.02 -10.637,3.975 -14.657,-0.1 -4.019,-4.075 -3.975,-10.636 0.1,-14.656 z"
         id="path4669"
         inkscape:connector-curvature="0" />
      <path
         style="fill:#ffffff"
         d="m 332.045,125.46 c -8.734,-8.734 -22.895,-8.734 -31.629,0 -8.734,8.734 -8.734,22.895 0,31.629 8.734,8.734 22.895,8.734 31.629,0 8.719,-8.74 8.719,-22.888 0,-31.629 z m -8.485,23.143 c -4.048,4.044 -10.607,4.041 -14.651,-0.007 -4.044,-4.048 -4.041,-10.607 0.007,-14.651 4.045,-4.041 10.599,-4.041 14.645,0 4.048,3.997 4.089,10.518 0.092,14.566 -0.032,0.031 -0.062,0.062 -0.093,0.092 z"
         id="path4671"
         inkscape:connector-curvature="0" />
      <path
         style="fill:#ffffff"
         d="m 356.233,123.637 c 12.351,-0.001 22.362,-10.014 22.361,-22.365 -10e-4,-12.351 -10.014,-22.362 -22.365,-22.361 -12.351,0.001 -22.362,10.014 -22.361,22.365 0,5.93 2.357,11.618 6.55,15.811 4.185,4.208 9.88,6.567 15.815,6.55 z m -7.329,-29.694 c 4.048,-4.047 10.61,-4.047 14.657,0.001 4.047,4.048 4.047,10.61 -10e-4,14.657 -4.048,4.047 -10.61,4.047 -14.657,-0.001 -1.943,-1.944 -3.035,-4.579 -3.035,-7.328 -0.008,-2.75 1.085,-5.389 3.036,-7.329 z"
         id="path4673"
         inkscape:connector-curvature="0" />
      <path
         style="fill:#ffffff"
         d="m 261.391,175.115 -68,0 c -3.314,0 -6,2.686 -6,6 0,3.314 2.686,6 6,6 l 68,0 c 3.314,0 6,-2.686 6,-6 0,-3.314 -2.686,-6 -6,-6 z"
         id="path4675"
         inkscape:connector-curvature="0" />
    </g>
    <g
       transform="matrix(0.18117872,0.07362904,-0.06783379,0.15262118,545.22783,753.13754)"
       id="g4677"
       style="opacity:0.203;fill:#ffffff">
      <path
         inkscape:connector-curvature="0"
         style="fill:#ffffff"
         id="path4679"
         d="m 424.391,230.636 0,-22.333 c 19.195,-17.646 30.279,-42.417 30.643,-68.488 0.824,-51.792 -40.518,-95.493 -92.055,-97.214 -25.316,-0.822 -49.94,8.342 -68.559,25.514 l -3.318,0 -15.191,-18.251 C 267.592,39.811 255.196,34.029 242.147,34.115 l -29.52,0 c -13.048,-0.087 -25.444,5.695 -33.763,15.748 l -15.192,18.252 -2.844,0 C 142.98,51.815 119.725,42.706 95.554,42.55 42.792,42.619 0.044,85.388 0,138.15 c 0,26.29 11.391,51.72 30.391,70.056 l 0,95.668 c 0,26.955 21.72,49.241 48.674,49.241 l 16.293,0 c 24.669,-0.116 45.426,-18.511 48.505,-42.988 l 6.355,-50.726 c 2.327,-18.442 18.007,-32.276 36.595,-32.286 l 0.119,0 81.563,0.19 c 11.623,0.013 22.556,5.517 29.49,14.844 -29.409,22.384 -46.677,57.218 -46.685,94.177 0,65.411 53.291,118.613 118.794,118.613 65.503,0 118.96,-53.222 118.96,-118.632 0,-46.02 -26.663,-86.01 -64.663,-105.671 z M 188.123,57.496 c 6.043,-7.283 15.041,-11.462 24.504,-11.381 l 29.52,0 c 9.464,-0.081 18.462,4.098 24.505,11.382 l 8.898,10.618 -96.325,0 z m 80.413,157.809 -81.563,-0.19 -0.159,0 c -24.619,-0.02 -45.405,18.283 -48.5,42.706 l -6.354,50.866 c -2.324,18.468 -17.988,32.346 -36.602,32.428 l -16.293,0 c -20.338,0 -36.674,-16.9 -36.674,-37.241 l 0,-98.29 C 42.352,203.869 41.593,202.251 40.3,201.124 22.378,185.116 12.076,162.265 11.947,138.235 12.008,92.047 49.5,54.655 95.687,54.716 c 21.679,0.029 42.5,8.475 58.073,23.557 0.1,0.093 0.19,0.027 0.284,0.125 1.149,1.156 2.729,1.778 4.357,1.717 l 138.434,0 c 1.556,0.06 3.072,-0.502 4.213,-1.562 16.287,-16.129 38.539,-24.774 61.443,-23.873 45.039,1.5 81.094,39.616 80.374,84.907 -0.384,24.181 -10.409,46 -28.53,61.405 -1.296,1.167 -2.008,2.849 -1.944,4.592 l 0,19.741 c -34.483,-12.993 -73.038,-9.297 -104.425,10.01 -9.206,-12.572 -23.848,-20.01 -39.43,-20.03 z m 101.555,227.622 c -58.887,0 -106.794,-47.833 -106.794,-106.627 0,-58.794 47.91,-106.626 106.794,-106.626 58.884,0 106.8,47.832 106.8,106.626 0,58.794 -47.911,106.627 -106.8,106.627 z" />
      <path
         inkscape:connector-curvature="0"
         id="path4681"
         d="m 347.755,293.428 c -2.051,-2.602 -5.822,-3.05 -8.425,-1 l -49.375,38.849 c -2.604,2.049 -3.054,5.822 -1.004,8.426 0.294,0.373 0.631,0.711 1.004,1.004 l 49.375,38.849 c 2.604,2.049 6.377,1.599 8.426,-1.005 2.049,-2.604 1.599,-6.377 -1.005,-8.426 l -43.382,-34.133 43.382,-34.133 c 2.605,-2.048 3.057,-5.82 1.01,-8.425 -0.003,-0.002 -0.004,-0.004 -0.006,-0.006 z"
         style="fill:#ffffff" />
      <path
         inkscape:connector-curvature="0"
         id="path4683"
         d="m 392.432,293.428 c -2.051,2.603 -1.603,6.375 1,8.426 l 43.382,34.133 -43.382,34.133 c -2.604,2.049 -3.054,5.821 -1.005,8.426 2.049,2.605 5.821,3.054 8.426,1.005 l 49.375,-38.849 c 2.604,-2.049 3.054,-5.822 1.004,-8.426 -0.294,-0.373 -0.631,-0.711 -1.004,-1.004 l -49.375,-38.849 c -2.604,-2.045 -6.372,-1.595 -8.421,1.005 z"
         style="fill:#ffffff" />
      <path
         inkscape:connector-curvature="0"
         id="path4685"
         d="m 379.713,272.181 c -3.276,-0.496 -6.335,1.758 -6.831,5.034 l 0,0.001 -17.537,115.873 c -0.497,3.276 1.756,6.335 5.033,6.832 3.277,0.497 6.335,-1.756 6.832,-5.033 l 17.537,-115.874 c 0.498,-3.276 -1.754,-6.336 -5.03,-6.833 -0.002,0.001 -0.003,0.001 -0.004,0 z"
         style="fill:#ffffff" />
      <path
         inkscape:connector-curvature="0"
         id="path4687"
         d="m 98.631,80.346 c -31.833,0 -57.639,25.806 -57.639,57.639 0,31.833 25.806,57.639 57.639,57.639 31.833,0 57.639,-25.806 57.639,-57.639 C 156.236,106.166 130.45,80.38 98.631,80.346 Z m 0,103.278 c -25.206,0 -45.639,-20.433 -45.639,-45.639 0,-25.206 20.433,-45.639 45.639,-45.639 25.206,0 45.639,20.433 45.639,45.639 -0.028,25.195 -20.445,45.611 -45.639,45.639 z"
         style="fill:#ffffff" />
      <path
         inkscape:connector-curvature="0"
         id="path4689"
         d="m 378.464,181.279 c 0.156,-12.34 -9.721,-22.47 -22.061,-22.626 -12.34,-0.156 -22.47,9.721 -22.626,22.061 -0.075,5.955 2.229,11.693 6.402,15.941 4.167,4.198 9.857,6.528 15.771,6.46 l 0.153,0 c 5.857,0.084 11.506,-2.167 15.7,-6.255 4.233,-4.081 6.635,-9.701 6.661,-15.581 z m -15.084,7.241 c -4.074,4.019 -10.635,3.974 -14.654,-0.1 -4.019,-4.074 -3.974,-10.635 0.1,-14.654 4.074,-4.019 10.635,-3.974 14.654,0.1 1.929,1.956 3.003,4.598 2.985,7.346 -0.009,2.751 -1.12,5.383 -3.085,7.308 z"
         style="fill:#ffffff" />
      <path
         inkscape:connector-curvature="0"
         id="path4691"
         d="m 380.448,157.115 c 8.676,8.792 22.836,8.886 31.628,0.211 8.792,-8.676 8.886,-22.836 0.211,-31.628 -8.675,-8.792 -22.836,-8.886 -31.628,-0.211 -4.222,4.166 -6.616,9.839 -6.656,15.77 -0.047,5.933 2.273,11.64 6.445,15.858 z m 8.64,-23.051 c 1.939,-1.909 4.557,-2.97 7.278,-2.949 l 0.071,0 c 2.748,-0.01 5.383,1.09 7.308,3.051 4.02,4.075 3.975,10.637 -0.1,14.657 -4.075,4.02 -10.637,3.975 -14.657,-0.1 -4.019,-4.075 -3.975,-10.636 0.1,-14.656 z"
         style="fill:#ffffff" />
      <path
         inkscape:connector-curvature="0"
         id="path4693"
         d="m 332.045,125.46 c -8.734,-8.734 -22.895,-8.734 -31.629,0 -8.734,8.734 -8.734,22.895 0,31.629 8.734,8.734 22.895,8.734 31.629,0 8.719,-8.74 8.719,-22.888 0,-31.629 z m -8.485,23.143 c -4.048,4.044 -10.607,4.041 -14.651,-0.007 -4.044,-4.048 -4.041,-10.607 0.007,-14.651 4.045,-4.041 10.599,-4.041 14.645,0 4.048,3.997 4.089,10.518 0.092,14.566 -0.032,0.031 -0.062,0.062 -0.093,0.092 z"
         style="fill:#ffffff" />
      <path
         inkscape:connector-curvature="0"
         id="path4695"
         d="m 356.233,123.637 c 12.351,-0.001 22.362,-10.014 22.361,-22.365 -10e-4,-12.351 -10.014,-22.362 -22.365,-22.361 -12.351,0.001 -22.362,10.014 -22.361,22.365 0,5.93 2.357,11.618 6.55,15.811 4.185,4.208 9.88,6.567 15.815,6.55 z m -7.329,-29.694 c 4.048,-4.047 10.61,-4.047 14.657,0.001 4.047,4.048 4.047,10.61 -10e-4,14.657 -4.048,4.047 -10.61,4.047 -14.657,-0.001 -1.943,-1.944 -3.035,-4.579 -3.035,-7.328 -0.008,-2.75 1.085,-5.389 3.036,-7.329 z"
         style="fill:#ffffff" />
      <path
         inkscape:connector-curvature="0"
         id="path4697"
         d="m 261.391,175.115 -68,0 c -3.314,0 -6,2.686 -6,6 0,3.314 2.686,6 6,6 l 68,0 c 3.314,0 6,-2.686 6,-6 0,-3.314 -2.686,-6 -6,-6 z"
         style="fill:#ffffff" />
    </g>
    <g
       style="opacity:0.203;fill:#ffffff"
       id="g4699"
       transform="matrix(0.04881855,0.18236283,-0.16800926,0.04112374,610.44275,569.50332)">
      <path
         d="m 424.391,230.636 0,-22.333 c 19.195,-17.646 30.279,-42.417 30.643,-68.488 0.824,-51.792 -40.518,-95.493 -92.055,-97.214 -25.316,-0.822 -49.94,8.342 -68.559,25.514 l -3.318,0 -15.191,-18.251 C 267.592,39.811 255.196,34.029 242.147,34.115 l -29.52,0 c -13.048,-0.087 -25.444,5.695 -33.763,15.748 l -15.192,18.252 -2.844,0 C 142.98,51.815 119.725,42.706 95.554,42.55 42.792,42.619 0.044,85.388 0,138.15 c 0,26.29 11.391,51.72 30.391,70.056 l 0,95.668 c 0,26.955 21.72,49.241 48.674,49.241 l 16.293,0 c 24.669,-0.116 45.426,-18.511 48.505,-42.988 l 6.355,-50.726 c 2.327,-18.442 18.007,-32.276 36.595,-32.286 l 0.119,0 81.563,0.19 c 11.623,0.013 22.556,5.517 29.49,14.844 -29.409,22.384 -46.677,57.218 -46.685,94.177 0,65.411 53.291,118.613 118.794,118.613 65.503,0 118.96,-53.222 118.96,-118.632 0,-46.02 -26.663,-86.01 -64.663,-105.671 z M 188.123,57.496 c 6.043,-7.283 15.041,-11.462 24.504,-11.381 l 29.52,0 c 9.464,-0.081 18.462,4.098 24.505,11.382 l 8.898,10.618 -96.325,0 z m 80.413,157.809 -81.563,-0.19 -0.159,0 c -24.619,-0.02 -45.405,18.283 -48.5,42.706 l -6.354,50.866 c -2.324,18.468 -17.988,32.346 -36.602,32.428 l -16.293,0 c -20.338,0 -36.674,-16.9 -36.674,-37.241 l 0,-98.29 C 42.352,203.869 41.593,202.251 40.3,201.124 22.378,185.116 12.076,162.265 11.947,138.235 12.008,92.047 49.5,54.655 95.687,54.716 c 21.679,0.029 42.5,8.475 58.073,23.557 0.1,0.093 0.19,0.027 0.284,0.125 1.149,1.156 2.729,1.778 4.357,1.717 l 138.434,0 c 1.556,0.06 3.072,-0.502 4.213,-1.562 16.287,-16.129 38.539,-24.774 61.443,-23.873 45.039,1.5 81.094,39.616 80.374,84.907 -0.384,24.181 -10.409,46 -28.53,61.405 -1.296,1.167 -2.008,2.849 -1.944,4.592 l 0,19.741 c -34.483,-12.993 -73.038,-9.297 -104.425,10.01 -9.206,-12.572 -23.848,-20.01 -39.43,-20.03 z m 101.555,227.622 c -58.887,0 -106.794,-47.833 -106.794,-106.627 0,-58.794 47.91,-106.626 106.794,-106.626 58.884,0 106.8,47.832 106.8,106.626 0,58.794 -47.911,106.627 -106.8,106.627 z"
         id="path4701"
         style="fill:#ffffff"
         inkscape:connector-curvature="0" />
      <path
         style="fill:#ffffff"
         d="m 347.755,293.428 c -2.051,-2.602 -5.822,-3.05 -8.425,-1 l -49.375,38.849 c -2.604,2.049 -3.054,5.822 -1.004,8.426 0.294,0.373 0.631,0.711 1.004,1.004 l 49.375,38.849 c 2.604,2.049 6.377,1.599 8.426,-1.005 2.049,-2.604 1.599,-6.377 -1.005,-8.426 l -43.382,-34.133 43.382,-34.133 c 2.605,-2.048 3.057,-5.82 1.01,-8.425 -0.003,-0.002 -0.004,-0.004 -0.006,-0.006 z"
         id="path4703"
         inkscape:connector-curvature="0" />
      <path
         style="fill:#ffffff"
         d="m 392.432,293.428 c -2.051,2.603 -1.603,6.375 1,8.426 l 43.382,34.133 -43.382,34.133 c -2.604,2.049 -3.054,5.821 -1.005,8.426 2.049,2.605 5.821,3.054 8.426,1.005 l 49.375,-38.849 c 2.604,-2.049 3.054,-5.822 1.004,-8.426 -0.294,-0.373 -0.631,-0.711 -1.004,-1.004 l -49.375,-38.849 c -2.604,-2.045 -6.372,-1.595 -8.421,1.005 z"
         id="path4705"
         inkscape:connector-curvature="0" />
      <path
         style="fill:#ffffff"
         d="m 379.713,272.181 c -3.276,-0.496 -6.335,1.758 -6.831,5.034 l 0,0.001 -17.537,115.873 c -0.497,3.276 1.756,6.335 5.033,6.832 3.277,0.497 6.335,-1.756 6.832,-5.033 l 17.537,-115.874 c 0.498,-3.276 -1.754,-6.336 -5.03,-6.833 -0.002,0.001 -0.003,0.001 -0.004,0 z"
         id="path4707"
         inkscape:connector-curvature="0" />
      <path
         style="fill:#ffffff"
         d="m 98.631,80.346 c -31.833,0 -57.639,25.806 -57.639,57.639 0,31.833 25.806,57.639 57.639,57.639 31.833,0 57.639,-25.806 57.639,-57.639 C 156.236,106.166 130.45,80.38 98.631,80.346 Z m 0,103.278 c -25.206,0 -45.639,-20.433 -45.639,-45.639 0,-25.206 20.433,-45.639 45.639,-45.639 25.206,0 45.639,20.433 45.639,45.639 -0.028,25.195 -20.445,45.611 -45.639,45.639 z"
         id="path4709"
         inkscape:connector-curvature="0" />
      <path
         style="fill:#ffffff"
         d="m 378.464,181.279 c 0.156,-12.34 -9.721,-22.47 -22.061,-22.626 -12.34,-0.156 -22.47,9.721 -22.626,22.061 -0.075,5.955 2.229,11.693 6.402,15.941 4.167,4.198 9.857,6.528 15.771,6.46 l 0.153,0 c 5.857,0.084 11.506,-2.167 15.7,-6.255 4.233,-4.081 6.635,-9.701 6.661,-15.581 z m -15.084,7.241 c -4.074,4.019 -10.635,3.974 -14.654,-0.1 -4.019,-4.074 -3.974,-10.635 0.1,-14.654 4.074,-4.019 10.635,-3.974 14.654,0.1 1.929,1.956 3.003,4.598 2.985,7.346 -0.009,2.751 -1.12,5.383 -3.085,7.308 z"
         id="path4711"
         inkscape:connector-curvature="0" />
      <path
         style="fill:#ffffff"
         d="m 380.448,157.115 c 8.676,8.792 22.836,8.886 31.628,0.211 8.792,-8.676 8.886,-22.836 0.211,-31.628 -8.675,-8.792 -22.836,-8.886 -31.628,-0.211 -4.222,4.166 -6.616,9.839 -6.656,15.77 -0.047,5.933 2.273,11.64 6.445,15.858 z m 8.64,-23.051 c 1.939,-1.909 4.557,-2.97 7.278,-2.949 l 0.071,0 c 2.748,-0.01 5.383,1.09 7.308,3.051 4.02,4.075 3.975,10.637 -0.1,14.657 -4.075,4.02 -10.637,3.975 -14.657,-0.1 -4.019,-4.075 -3.975,-10.636 0.1,-14.656 z"
         id="path4713"
         inkscape:connector-curvature="0" />
      <path
         style="fill:#ffffff"
         d="m 332.045,125.46 c -8.734,-8.734 -22.895,-8.734 -31.629,0 -8.734,8.734 -8.734,22.895 0,31.629 8.734,8.734 22.895,8.734 31.629,0 8.719,-8.74 8.719,-22.888 0,-31.629 z m -8.485,23.143 c -4.048,4.044 -10.607,4.041 -14.651,-0.007 -4.044,-4.048 -4.041,-10.607 0.007,-14.651 4.045,-4.041 10.599,-4.041 14.645,0 4.048,3.997 4.089,10.518 0.092,14.566 -0.032,0.031 -0.062,0.062 -0.093,0.092 z"
         id="path4715"
         inkscape:connector-curvature="0" />
      <path
         style="fill:#ffffff"
         d="m 356.233,123.637 c 12.351,-0.001 22.362,-10.014 22.361,-22.365 -10e-4,-12.351 -10.014,-22.362 -22.365,-22.361 -12.351,0.001 -22.362,10.014 -22.361,22.365 0,5.93 2.357,11.618 6.55,15.811 4.185,4.208 9.88,6.567 15.815,6.55 z m -7.329,-29.694 c 4.048,-4.047 10.61,-4.047 14.657,0.001 4.047,4.048 4.047,10.61 -10e-4,14.657 -4.048,4.047 -10.61,4.047 -14.657,-0.001 -1.943,-1.944 -3.035,-4.579 -3.035,-7.328 -0.008,-2.75 1.085,-5.389 3.036,-7.329 z"
         id="path4717"
         inkscape:connector-curvature="0" />
      <path
         style="fill:#ffffff"
         d="m 261.391,175.115 -68,0 c -3.314,0 -6,2.686 -6,6 0,3.314 2.686,6 6,6 l 68,0 c 3.314,0 6,-2.686 6,-6 0,-3.314 -2.686,-6 -6,-6 z"
         id="path4719"
         inkscape:connector-curvature="0" />
    </g>
    <g
       style="opacity:0.203;fill:#ffffff"
       id="g4721"
       transform="matrix(0.18117872,0.07362904,-0.06783379,0.15262118,749.68563,560.10676)">
      <path
         d="m 424.391,230.636 0,-22.333 c 19.195,-17.646 30.279,-42.417 30.643,-68.488 0.824,-51.792 -40.518,-95.493 -92.055,-97.214 -25.316,-0.822 -49.94,8.342 -68.559,25.514 l -3.318,0 -15.191,-18.251 C 267.592,39.811 255.196,34.029 242.147,34.115 l -29.52,0 c -13.048,-0.087 -25.444,5.695 -33.763,15.748 l -15.192,18.252 -2.844,0 C 142.98,51.815 119.725,42.706 95.554,42.55 42.792,42.619 0.044,85.388 0,138.15 c 0,26.29 11.391,51.72 30.391,70.056 l 0,95.668 c 0,26.955 21.72,49.241 48.674,49.241 l 16.293,0 c 24.669,-0.116 45.426,-18.511 48.505,-42.988 l 6.355,-50.726 c 2.327,-18.442 18.007,-32.276 36.595,-32.286 l 0.119,0 81.563,0.19 c 11.623,0.013 22.556,5.517 29.49,14.844 -29.409,22.384 -46.677,57.218 -46.685,94.177 0,65.411 53.291,118.613 118.794,118.613 65.503,0 118.96,-53.222 118.96,-118.632 0,-46.02 -26.663,-86.01 -64.663,-105.671 z M 188.123,57.496 c 6.043,-7.283 15.041,-11.462 24.504,-11.381 l 29.52,0 c 9.464,-0.081 18.462,4.098 24.505,11.382 l 8.898,10.618 -96.325,0 z m 80.413,157.809 -81.563,-0.19 -0.159,0 c -24.619,-0.02 -45.405,18.283 -48.5,42.706 l -6.354,50.866 c -2.324,18.468 -17.988,32.346 -36.602,32.428 l -16.293,0 c -20.338,0 -36.674,-16.9 -36.674,-37.241 l 0,-98.29 C 42.352,203.869 41.593,202.251 40.3,201.124 22.378,185.116 12.076,162.265 11.947,138.235 12.008,92.047 49.5,54.655 95.687,54.716 c 21.679,0.029 42.5,8.475 58.073,23.557 0.1,0.093 0.19,0.027 0.284,0.125 1.149,1.156 2.729,1.778 4.357,1.717 l 138.434,0 c 1.556,0.06 3.072,-0.502 4.213,-1.562 16.287,-16.129 38.539,-24.774 61.443,-23.873 45.039,1.5 81.094,39.616 80.374,84.907 -0.384,24.181 -10.409,46 -28.53,61.405 -1.296,1.167 -2.008,2.849 -1.944,4.592 l 0,19.741 c -34.483,-12.993 -73.038,-9.297 -104.425,10.01 -9.206,-12.572 -23.848,-20.01 -39.43,-20.03 z m 101.555,227.622 c -58.887,0 -106.794,-47.833 -106.794,-106.627 0,-58.794 47.91,-106.626 106.794,-106.626 58.884,0 106.8,47.832 106.8,106.626 0,58.794 -47.911,106.627 -106.8,106.627 z"
         id="path4723"
         style="fill:#ffffff"
         inkscape:connector-curvature="0" />
      <path
         style="fill:#ffffff"
         d="m 347.755,293.428 c -2.051,-2.602 -5.822,-3.05 -8.425,-1 l -49.375,38.849 c -2.604,2.049 -3.054,5.822 -1.004,8.426 0.294,0.373 0.631,0.711 1.004,1.004 l 49.375,38.849 c 2.604,2.049 6.377,1.599 8.426,-1.005 2.049,-2.604 1.599,-6.377 -1.005,-8.426 l -43.382,-34.133 43.382,-34.133 c 2.605,-2.048 3.057,-5.82 1.01,-8.425 -0.003,-0.002 -0.004,-0.004 -0.006,-0.006 z"
         id="path4725"
         inkscape:connector-curvature="0" />
      <path
         style="fill:#ffffff"
         d="m 392.432,293.428 c -2.051,2.603 -1.603,6.375 1,8.426 l 43.382,34.133 -43.382,34.133 c -2.604,2.049 -3.054,5.821 -1.005,8.426 2.049,2.605 5.821,3.054 8.426,1.005 l 49.375,-38.849 c 2.604,-2.049 3.054,-5.822 1.004,-8.426 -0.294,-0.373 -0.631,-0.711 -1.004,-1.004 l -49.375,-38.849 c -2.604,-2.045 -6.372,-1.595 -8.421,1.005 z"
         id="path4727"
         inkscape:connector-curvature="0" />
      <path
         style="fill:#ffffff"
         d="m 379.713,272.181 c -3.276,-0.496 -6.335,1.758 -6.831,5.034 l 0,0.001 -17.537,115.873 c -0.497,3.276 1.756,6.335 5.033,6.832 3.277,0.497 6.335,-1.756 6.832,-5.033 l 17.537,-115.874 c 0.498,-3.276 -1.754,-6.336 -5.03,-6.833 -0.002,0.001 -0.003,0.001 -0.004,0 z"
         id="path4729"
         inkscape:connector-curvature="0" />
      <path
         style="fill:#ffffff"
         d="m 98.631,80.346 c -31.833,0 -57.639,25.806 -57.639,57.639 0,31.833 25.806,57.639 57.639,57.639 31.833,0 57.639,-25.806 57.639,-57.639 C 156.236,106.166 130.45,80.38 98.631,80.346 Z m 0,103.278 c -25.206,0 -45.639,-20.433 -45.639,-45.639 0,-25.206 20.433,-45.639 45.639,-45.639 25.206,0 45.639,20.433 45.639,45.639 -0.028,25.195 -20.445,45.611 -45.639,45.639 z"
         id="path4731"
         inkscape:connector-curvature="0" />
      <path
         style="fill:#ffffff"
         d="m 378.464,181.279 c 0.156,-12.34 -9.721,-22.47 -22.061,-22.626 -12.34,-0.156 -22.47,9.721 -22.626,22.061 -0.075,5.955 2.229,11.693 6.402,15.941 4.167,4.198 9.857,6.528 15.771,6.46 l 0.153,0 c 5.857,0.084 11.506,-2.167 15.7,-6.255 4.233,-4.081 6.635,-9.701 6.661,-15.581 z m -15.084,7.241 c -4.074,4.019 -10.635,3.974 -14.654,-0.1 -4.019,-4.074 -3.974,-10.635 0.1,-14.654 4.074,-4.019 10.635,-3.974 14.654,0.1 1.929,1.956 3.003,4.598 2.985,7.346 -0.009,2.751 -1.12,5.383 -3.085,7.308 z"
         id="path4733"
         inkscape:connector-curvature="0" />
      <path
         style="fill:#ffffff"
         d="m 380.448,157.115 c 8.676,8.792 22.836,8.886 31.628,0.211 8.792,-8.676 8.886,-22.836 0.211,-31.628 -8.675,-8.792 -22.836,-8.886 -31.628,-0.211 -4.222,4.166 -6.616,9.839 -6.656,15.77 -0.047,5.933 2.273,11.64 6.445,15.858 z m 8.64,-23.051 c 1.939,-1.909 4.557,-2.97 7.278,-2.949 l 0.071,0 c 2.748,-0.01 5.383,1.09 7.308,3.051 4.02,4.075 3.975,10.637 -0.1,14.657 -4.075,4.02 -10.637,3.975 -14.657,-0.1 -4.019,-4.075 -3.975,-10.636 0.1,-14.656 z"
         id="path4735"
         inkscape:connector-curvature="0" />
      <path
         style="fill:#ffffff"
         d="m 332.045,125.46 c -8.734,-8.734 -22.895,-8.734 -31.629,0 -8.734,8.734 -8.734,22.895 0,31.629 8.734,8.734 22.895,8.734 31.629,0 8.719,-8.74 8.719,-22.888 0,-31.629 z m -8.485,23.143 c -4.048,4.044 -10.607,4.041 -14.651,-0.007 -4.044,-4.048 -4.041,-10.607 0.007,-14.651 4.045,-4.041 10.599,-4.041 14.645,0 4.048,3.997 4.089,10.518 0.092,14.566 -0.032,0.031 -0.062,0.062 -0.093,0.092 z"
         id="path4737"
         inkscape:connector-curvature="0" />
      <path
         style="fill:#ffffff"
         d="m 356.233,123.637 c 12.351,-0.001 22.362,-10.014 22.361,-22.365 -10e-4,-12.351 -10.014,-22.362 -22.365,-22.361 -12.351,0.001 -22.362,10.014 -22.361,22.365 0,5.93 2.357,11.618 6.55,15.811 4.185,4.208 9.88,6.567 15.815,6.55 z m -7.329,-29.694 c 4.048,-4.047 10.61,-4.047 14.657,0.001 4.047,4.048 4.047,10.61 -10e-4,14.657 -4.048,4.047 -10.61,4.047 -14.657,-0.001 -1.943,-1.944 -3.035,-4.579 -3.035,-7.328 -0.008,-2.75 1.085,-5.389 3.036,-7.329 z"
         id="path4739"
         inkscape:connector-curvature="0" />
      <path
         style="fill:#ffffff"
         d="m 261.391,175.115 -68,0 c -3.314,0 -6,2.686 -6,6 0,3.314 2.686,6 6,6 l 68,0 c 3.314,0 6,-2.686 6,-6 0,-3.314 -2.686,-6 -6,-6 z"
         id="path4741"
         inkscape:connector-curvature="0" />
    </g>
    <g
       transform="matrix(0.18117872,0.07362904,-0.06783379,0.15262118,550.40398,372.02548)"
       id="g4743"
       style="opacity:0.203;fill:#ffffff">
      <path
         inkscape:connector-curvature="0"
         style="fill:#ffffff"
         id="path4745"
         d="m 424.391,230.636 0,-22.333 c 19.195,-17.646 30.279,-42.417 30.643,-68.488 0.824,-51.792 -40.518,-95.493 -92.055,-97.214 -25.316,-0.822 -49.94,8.342 -68.559,25.514 l -3.318,0 -15.191,-18.251 C 267.592,39.811 255.196,34.029 242.147,34.115 l -29.52,0 c -13.048,-0.087 -25.444,5.695 -33.763,15.748 l -15.192,18.252 -2.844,0 C 142.98,51.815 119.725,42.706 95.554,42.55 42.792,42.619 0.044,85.388 0,138.15 c 0,26.29 11.391,51.72 30.391,70.056 l 0,95.668 c 0,26.955 21.72,49.241 48.674,49.241 l 16.293,0 c 24.669,-0.116 45.426,-18.511 48.505,-42.988 l 6.355,-50.726 c 2.327,-18.442 18.007,-32.276 36.595,-32.286 l 0.119,0 81.563,0.19 c 11.623,0.013 22.556,5.517 29.49,14.844 -29.409,22.384 -46.677,57.218 -46.685,94.177 0,65.411 53.291,118.613 118.794,118.613 65.503,0 118.96,-53.222 118.96,-118.632 0,-46.02 -26.663,-86.01 -64.663,-105.671 z M 188.123,57.496 c 6.043,-7.283 15.041,-11.462 24.504,-11.381 l 29.52,0 c 9.464,-0.081 18.462,4.098 24.505,11.382 l 8.898,10.618 -96.325,0 z m 80.413,157.809 -81.563,-0.19 -0.159,0 c -24.619,-0.02 -45.405,18.283 -48.5,42.706 l -6.354,50.866 c -2.324,18.468 -17.988,32.346 -36.602,32.428 l -16.293,0 c -20.338,0 -36.674,-16.9 -36.674,-37.241 l 0,-98.29 C 42.352,203.869 41.593,202.251 40.3,201.124 22.378,185.116 12.076,162.265 11.947,138.235 12.008,92.047 49.5,54.655 95.687,54.716 c 21.679,0.029 42.5,8.475 58.073,23.557 0.1,0.093 0.19,0.027 0.284,0.125 1.149,1.156 2.729,1.778 4.357,1.717 l 138.434,0 c 1.556,0.06 3.072,-0.502 4.213,-1.562 16.287,-16.129 38.539,-24.774 61.443,-23.873 45.039,1.5 81.094,39.616 80.374,84.907 -0.384,24.181 -10.409,46 -28.53,61.405 -1.296,1.167 -2.008,2.849 -1.944,4.592 l 0,19.741 c -34.483,-12.993 -73.038,-9.297 -104.425,10.01 -9.206,-12.572 -23.848,-20.01 -39.43,-20.03 z m 101.555,227.622 c -58.887,0 -106.794,-47.833 -106.794,-106.627 0,-58.794 47.91,-106.626 106.794,-106.626 58.884,0 106.8,47.832 106.8,106.626 0,58.794 -47.911,106.627 -106.8,106.627 z" />
      <path
         inkscape:connector-curvature="0"
         id="path4747"
         d="m 347.755,293.428 c -2.051,-2.602 -5.822,-3.05 -8.425,-1 l -49.375,38.849 c -2.604,2.049 -3.054,5.822 -1.004,8.426 0.294,0.373 0.631,0.711 1.004,1.004 l 49.375,38.849 c 2.604,2.049 6.377,1.599 8.426,-1.005 2.049,-2.604 1.599,-6.377 -1.005,-8.426 l -43.382,-34.133 43.382,-34.133 c 2.605,-2.048 3.057,-5.82 1.01,-8.425 -0.003,-0.002 -0.004,-0.004 -0.006,-0.006 z"
         style="fill:#ffffff" />
      <path
         inkscape:connector-curvature="0"
         id="path4749"
         d="m 392.432,293.428 c -2.051,2.603 -1.603,6.375 1,8.426 l 43.382,34.133 -43.382,34.133 c -2.604,2.049 -3.054,5.821 -1.005,8.426 2.049,2.605 5.821,3.054 8.426,1.005 l 49.375,-38.849 c 2.604,-2.049 3.054,-5.822 1.004,-8.426 -0.294,-0.373 -0.631,-0.711 -1.004,-1.004 l -49.375,-38.849 c -2.604,-2.045 -6.372,-1.595 -8.421,1.005 z"
         style="fill:#ffffff" />
      <path
         inkscape:connector-curvature="0"
         id="path4751"
         d="m 379.713,272.181 c -3.276,-0.496 -6.335,1.758 -6.831,5.034 l 0,0.001 -17.537,115.873 c -0.497,3.276 1.756,6.335 5.033,6.832 3.277,0.497 6.335,-1.756 6.832,-5.033 l 17.537,-115.874 c 0.498,-3.276 -1.754,-6.336 -5.03,-6.833 -0.002,0.001 -0.003,0.001 -0.004,0 z"
         style="fill:#ffffff" />
      <path
         inkscape:connector-curvature="0"
         id="path4753"
         d="m 98.631,80.346 c -31.833,0 -57.639,25.806 -57.639,57.639 0,31.833 25.806,57.639 57.639,57.639 31.833,0 57.639,-25.806 57.639,-57.639 C 156.236,106.166 130.45,80.38 98.631,80.346 Z m 0,103.278 c -25.206,0 -45.639,-20.433 -45.639,-45.639 0,-25.206 20.433,-45.639 45.639,-45.639 25.206,0 45.639,20.433 45.639,45.639 -0.028,25.195 -20.445,45.611 -45.639,45.639 z"
         style="fill:#ffffff" />
      <path
         inkscape:connector-curvature="0"
         id="path4755"
         d="m 378.464,181.279 c 0.156,-12.34 -9.721,-22.47 -22.061,-22.626 -12.34,-0.156 -22.47,9.721 -22.626,22.061 -0.075,5.955 2.229,11.693 6.402,15.941 4.167,4.198 9.857,6.528 15.771,6.46 l 0.153,0 c 5.857,0.084 11.506,-2.167 15.7,-6.255 4.233,-4.081 6.635,-9.701 6.661,-15.581 z m -15.084,7.241 c -4.074,4.019 -10.635,3.974 -14.654,-0.1 -4.019,-4.074 -3.974,-10.635 0.1,-14.654 4.074,-4.019 10.635,-3.974 14.654,0.1 1.929,1.956 3.003,4.598 2.985,7.346 -0.009,2.751 -1.12,5.383 -3.085,7.308 z"
         style="fill:#ffffff" />
      <path
         inkscape:connector-curvature="0"
         id="path4757"
         d="m 380.448,157.115 c 8.676,8.792 22.836,8.886 31.628,0.211 8.792,-8.676 8.886,-22.836 0.211,-31.628 -8.675,-8.792 -22.836,-8.886 -31.628,-0.211 -4.222,4.166 -6.616,9.839 -6.656,15.77 -0.047,5.933 2.273,11.64 6.445,15.858 z m 8.64,-23.051 c 1.939,-1.909 4.557,-2.97 7.278,-2.949 l 0.071,0 c 2.748,-0.01 5.383,1.09 7.308,3.051 4.02,4.075 3.975,10.637 -0.1,14.657 -4.075,4.02 -10.637,3.975 -14.657,-0.1 -4.019,-4.075 -3.975,-10.636 0.1,-14.656 z"
         style="fill:#ffffff" />
      <path
         inkscape:connector-curvature="0"
         id="path4759"
         d="m 332.045,125.46 c -8.734,-8.734 -22.895,-8.734 -31.629,0 -8.734,8.734 -8.734,22.895 0,31.629 8.734,8.734 22.895,8.734 31.629,0 8.719,-8.74 8.719,-22.888 0,-31.629 z m -8.485,23.143 c -4.048,4.044 -10.607,4.041 -14.651,-0.007 -4.044,-4.048 -4.041,-10.607 0.007,-14.651 4.045,-4.041 10.599,-4.041 14.645,0 4.048,3.997 4.089,10.518 0.092,14.566 -0.032,0.031 -0.062,0.062 -0.093,0.092 z"
         style="fill:#ffffff" />
      <path
         inkscape:connector-curvature="0"
         id="path4761"
         d="m 356.233,123.637 c 12.351,-0.001 22.362,-10.014 22.361,-22.365 -10e-4,-12.351 -10.014,-22.362 -22.365,-22.361 -12.351,0.001 -22.362,10.014 -22.361,22.365 0,5.93 2.357,11.618 6.55,15.811 4.185,4.208 9.88,6.567 15.815,6.55 z m -7.329,-29.694 c 4.048,-4.047 10.61,-4.047 14.657,0.001 4.047,4.048 4.047,10.61 -10e-4,14.657 -4.048,4.047 -10.61,4.047 -14.657,-0.001 -1.943,-1.944 -3.035,-4.579 -3.035,-7.328 -0.008,-2.75 1.085,-5.389 3.036,-7.329 z"
         style="fill:#ffffff" />
      <path
         inkscape:connector-curvature="0"
         id="path4763"
         d="m 261.391,175.115 -68,0 c -3.314,0 -6,2.686 -6,6 0,3.314 2.686,6 6,6 l 68,0 c 3.314,0 6,-2.686 6,-6 0,-3.314 -2.686,-6 -6,-6 z"
         style="fill:#ffffff" />
    </g>
    <g
       style="opacity:0.203;fill:#ffffff"
       id="g4765"
       transform="matrix(0.18117872,0.07362904,-0.06783379,0.15262118,335.59388,337.37893)">
      <path
         d="m 424.391,230.636 0,-22.333 c 19.195,-17.646 30.279,-42.417 30.643,-68.488 0.824,-51.792 -40.518,-95.493 -92.055,-97.214 -25.316,-0.822 -49.94,8.342 -68.559,25.514 l -3.318,0 -15.191,-18.251 C 267.592,39.811 255.196,34.029 242.147,34.115 l -29.52,0 c -13.048,-0.087 -25.444,5.695 -33.763,15.748 l -15.192,18.252 -2.844,0 C 142.98,51.815 119.725,42.706 95.554,42.55 42.792,42.619 0.044,85.388 0,138.15 c 0,26.29 11.391,51.72 30.391,70.056 l 0,95.668 c 0,26.955 21.72,49.241 48.674,49.241 l 16.293,0 c 24.669,-0.116 45.426,-18.511 48.505,-42.988 l 6.355,-50.726 c 2.327,-18.442 18.007,-32.276 36.595,-32.286 l 0.119,0 81.563,0.19 c 11.623,0.013 22.556,5.517 29.49,14.844 -29.409,22.384 -46.677,57.218 -46.685,94.177 0,65.411 53.291,118.613 118.794,118.613 65.503,0 118.96,-53.222 118.96,-118.632 0,-46.02 -26.663,-86.01 -64.663,-105.671 z M 188.123,57.496 c 6.043,-7.283 15.041,-11.462 24.504,-11.381 l 29.52,0 c 9.464,-0.081 18.462,4.098 24.505,11.382 l 8.898,10.618 -96.325,0 z m 80.413,157.809 -81.563,-0.19 -0.159,0 c -24.619,-0.02 -45.405,18.283 -48.5,42.706 l -6.354,50.866 c -2.324,18.468 -17.988,32.346 -36.602,32.428 l -16.293,0 c -20.338,0 -36.674,-16.9 -36.674,-37.241 l 0,-98.29 C 42.352,203.869 41.593,202.251 40.3,201.124 22.378,185.116 12.076,162.265 11.947,138.235 12.008,92.047 49.5,54.655 95.687,54.716 c 21.679,0.029 42.5,8.475 58.073,23.557 0.1,0.093 0.19,0.027 0.284,0.125 1.149,1.156 2.729,1.778 4.357,1.717 l 138.434,0 c 1.556,0.06 3.072,-0.502 4.213,-1.562 16.287,-16.129 38.539,-24.774 61.443,-23.873 45.039,1.5 81.094,39.616 80.374,84.907 -0.384,24.181 -10.409,46 -28.53,61.405 -1.296,1.167 -2.008,2.849 -1.944,4.592 l 0,19.741 c -34.483,-12.993 -73.038,-9.297 -104.425,10.01 -9.206,-12.572 -23.848,-20.01 -39.43,-20.03 z m 101.555,227.622 c -58.887,0 -106.794,-47.833 -106.794,-106.627 0,-58.794 47.91,-106.626 106.794,-106.626 58.884,0 106.8,47.832 106.8,106.626 0,58.794 -47.911,106.627 -106.8,106.627 z"
         id="path4767"
         style="fill:#ffffff"
         inkscape:connector-curvature="0" />
      <path
         style="fill:#ffffff"
         d="m 347.755,293.428 c -2.051,-2.602 -5.822,-3.05 -8.425,-1 l -49.375,38.849 c -2.604,2.049 -3.054,5.822 -1.004,8.426 0.294,0.373 0.631,0.711 1.004,1.004 l 49.375,38.849 c 2.604,2.049 6.377,1.599 8.426,-1.005 2.049,-2.604 1.599,-6.377 -1.005,-8.426 l -43.382,-34.133 43.382,-34.133 c 2.605,-2.048 3.057,-5.82 1.01,-8.425 -0.003,-0.002 -0.004,-0.004 -0.006,-0.006 z"
         id="path4769"
         inkscape:connector-curvature="0" />
      <path
         style="fill:#ffffff"
         d="m 392.432,293.428 c -2.051,2.603 -1.603,6.375 1,8.426 l 43.382,34.133 -43.382,34.133 c -2.604,2.049 -3.054,5.821 -1.005,8.426 2.049,2.605 5.821,3.054 8.426,1.005 l 49.375,-38.849 c 2.604,-2.049 3.054,-5.822 1.004,-8.426 -0.294,-0.373 -0.631,-0.711 -1.004,-1.004 l -49.375,-38.849 c -2.604,-2.045 -6.372,-1.595 -8.421,1.005 z"
         id="path4771"
         inkscape:connector-curvature="0" />
      <path
         style="fill:#ffffff"
         d="m 379.713,272.181 c -3.276,-0.496 -6.335,1.758 -6.831,5.034 l 0,0.001 -17.537,115.873 c -0.497,3.276 1.756,6.335 5.033,6.832 3.277,0.497 6.335,-1.756 6.832,-5.033 l 17.537,-115.874 c 0.498,-3.276 -1.754,-6.336 -5.03,-6.833 -0.002,0.001 -0.003,0.001 -0.004,0 z"
         id="path4773"
         inkscape:connector-curvature="0" />
      <path
         style="fill:#ffffff"
         d="m 98.631,80.346 c -31.833,0 -57.639,25.806 -57.639,57.639 0,31.833 25.806,57.639 57.639,57.639 31.833,0 57.639,-25.806 57.639,-57.639 C 156.236,106.166 130.45,80.38 98.631,80.346 Z m 0,103.278 c -25.206,0 -45.639,-20.433 -45.639,-45.639 0,-25.206 20.433,-45.639 45.639,-45.639 25.206,0 45.639,20.433 45.639,45.639 -0.028,25.195 -20.445,45.611 -45.639,45.639 z"
         id="path4775"
         inkscape:connector-curvature="0" />
      <path
         style="fill:#ffffff"
         d="m 378.464,181.279 c 0.156,-12.34 -9.721,-22.47 -22.061,-22.626 -12.34,-0.156 -22.47,9.721 -22.626,22.061 -0.075,5.955 2.229,11.693 6.402,15.941 4.167,4.198 9.857,6.528 15.771,6.46 l 0.153,0 c 5.857,0.084 11.506,-2.167 15.7,-6.255 4.233,-4.081 6.635,-9.701 6.661,-15.581 z m -15.084,7.241 c -4.074,4.019 -10.635,3.974 -14.654,-0.1 -4.019,-4.074 -3.974,-10.635 0.1,-14.654 4.074,-4.019 10.635,-3.974 14.654,0.1 1.929,1.956 3.003,4.598 2.985,7.346 -0.009,2.751 -1.12,5.383 -3.085,7.308 z"
         id="path4777"
         inkscape:connector-curvature="0" />
      <path
         style="fill:#ffffff"
         d="m 380.448,157.115 c 8.676,8.792 22.836,8.886 31.628,0.211 8.792,-8.676 8.886,-22.836 0.211,-31.628 -8.675,-8.792 -22.836,-8.886 -31.628,-0.211 -4.222,4.166 -6.616,9.839 -6.656,15.77 -0.047,5.933 2.273,11.64 6.445,15.858 z m 8.64,-23.051 c 1.939,-1.909 4.557,-2.97 7.278,-2.949 l 0.071,0 c 2.748,-0.01 5.383,1.09 7.308,3.051 4.02,4.075 3.975,10.637 -0.1,14.657 -4.075,4.02 -10.637,3.975 -14.657,-0.1 -4.019,-4.075 -3.975,-10.636 0.1,-14.656 z"
         id="path4779"
         inkscape:connector-curvature="0" />
      <path
         style="fill:#ffffff"
         d="m 332.045,125.46 c -8.734,-8.734 -22.895,-8.734 -31.629,0 -8.734,8.734 -8.734,22.895 0,31.629 8.734,8.734 22.895,8.734 31.629,0 8.719,-8.74 8.719,-22.888 0,-31.629 z m -8.485,23.143 c -4.048,4.044 -10.607,4.041 -14.651,-0.007 -4.044,-4.048 -4.041,-10.607 0.007,-14.651 4.045,-4.041 10.599,-4.041 14.645,0 4.048,3.997 4.089,10.518 0.092,14.566 -0.032,0.031 -0.062,0.062 -0.093,0.092 z"
         id="path4781"
         inkscape:connector-curvature="0" />
      <path
         style="fill:#ffffff"
         d="m 356.233,123.637 c 12.351,-0.001 22.362,-10.014 22.361,-22.365 -10e-4,-12.351 -10.014,-22.362 -22.365,-22.361 -12.351,0.001 -22.362,10.014 -22.361,22.365 0,5.93 2.357,11.618 6.55,15.811 4.185,4.208 9.88,6.567 15.815,6.55 z m -7.329,-29.694 c 4.048,-4.047 10.61,-4.047 14.657,0.001 4.047,4.048 4.047,10.61 -10e-4,14.657 -4.048,4.047 -10.61,4.047 -14.657,-0.001 -1.943,-1.944 -3.035,-4.579 -3.035,-7.328 -0.008,-2.75 1.085,-5.389 3.036,-7.329 z"
         id="path4783"
         inkscape:connector-curvature="0" />
      <path
         style="fill:#ffffff"
         d="m 261.391,175.115 -68,0 c -3.314,0 -6,2.686 -6,6 0,3.314 2.686,6 6,6 l 68,0 c 3.314,0 6,-2.686 6,-6 0,-3.314 -2.686,-6 -6,-6 z"
         id="path4785"
         inkscape:connector-curvature="0" />
    </g>
    <g
       transform="matrix(0.17694718,0.08250367,-0.07600991,0.14905663,333.45276,650.29784)"
       id="g4787"
       style="opacity:0.203;fill:#ffffff">
      <path
         inkscape:connector-curvature="0"
         style="fill:#ffffff"
         id="path4789"
         d="m 424.391,230.636 0,-22.333 c 19.195,-17.646 30.279,-42.417 30.643,-68.488 0.824,-51.792 -40.518,-95.493 -92.055,-97.214 -25.316,-0.822 -49.94,8.342 -68.559,25.514 l -3.318,0 -15.191,-18.251 C 267.592,39.811 255.196,34.029 242.147,34.115 l -29.52,0 c -13.048,-0.087 -25.444,5.695 -33.763,15.748 l -15.192,18.252 -2.844,0 C 142.98,51.815 119.725,42.706 95.554,42.55 42.792,42.619 0.044,85.388 0,138.15 c 0,26.29 11.391,51.72 30.391,70.056 l 0,95.668 c 0,26.955 21.72,49.241 48.674,49.241 l 16.293,0 c 24.669,-0.116 45.426,-18.511 48.505,-42.988 l 6.355,-50.726 c 2.327,-18.442 18.007,-32.276 36.595,-32.286 l 0.119,0 81.563,0.19 c 11.623,0.013 22.556,5.517 29.49,14.844 -29.409,22.384 -46.677,57.218 -46.685,94.177 0,65.411 53.291,118.613 118.794,118.613 65.503,0 118.96,-53.222 118.96,-118.632 0,-46.02 -26.663,-86.01 -64.663,-105.671 z M 188.123,57.496 c 6.043,-7.283 15.041,-11.462 24.504,-11.381 l 29.52,0 c 9.464,-0.081 18.462,4.098 24.505,11.382 l 8.898,10.618 -96.325,0 z m 80.413,157.809 -81.563,-0.19 -0.159,0 c -24.619,-0.02 -45.405,18.283 -48.5,42.706 l -6.354,50.866 c -2.324,18.468 -17.988,32.346 -36.602,32.428 l -16.293,0 c -20.338,0 -36.674,-16.9 -36.674,-37.241 l 0,-98.29 C 42.352,203.869 41.593,202.251 40.3,201.124 22.378,185.116 12.076,162.265 11.947,138.235 12.008,92.047 49.5,54.655 95.687,54.716 c 21.679,0.029 42.5,8.475 58.073,23.557 0.1,0.093 0.19,0.027 0.284,0.125 1.149,1.156 2.729,1.778 4.357,1.717 l 138.434,0 c 1.556,0.06 3.072,-0.502 4.213,-1.562 16.287,-16.129 38.539,-24.774 61.443,-23.873 45.039,1.5 81.094,39.616 80.374,84.907 -0.384,24.181 -10.409,46 -28.53,61.405 -1.296,1.167 -2.008,2.849 -1.944,4.592 l 0,19.741 c -34.483,-12.993 -73.038,-9.297 -104.425,10.01 -9.206,-12.572 -23.848,-20.01 -39.43,-20.03 z m 101.555,227.622 c -58.887,0 -106.794,-47.833 -106.794,-106.627 0,-58.794 47.91,-106.626 106.794,-106.626 58.884,0 106.8,47.832 106.8,106.626 0,58.794 -47.911,106.627 -106.8,106.627 z" />
      <path
         inkscape:connector-curvature="0"
         id="path4791"
         d="m 347.755,293.428 c -2.051,-2.602 -5.822,-3.05 -8.425,-1 l -49.375,38.849 c -2.604,2.049 -3.054,5.822 -1.004,8.426 0.294,0.373 0.631,0.711 1.004,1.004 l 49.375,38.849 c 2.604,2.049 6.377,1.599 8.426,-1.005 2.049,-2.604 1.599,-6.377 -1.005,-8.426 l -43.382,-34.133 43.382,-34.133 c 2.605,-2.048 3.057,-5.82 1.01,-8.425 -0.003,-0.002 -0.004,-0.004 -0.006,-0.006 z"
         style="fill:#ffffff" />
      <path
         inkscape:connector-curvature="0"
         id="path4793"
         d="m 392.432,293.428 c -2.051,2.603 -1.603,6.375 1,8.426 l 43.382,34.133 -43.382,34.133 c -2.604,2.049 -3.054,5.821 -1.005,8.426 2.049,2.605 5.821,3.054 8.426,1.005 l 49.375,-38.849 c 2.604,-2.049 3.054,-5.822 1.004,-8.426 -0.294,-0.373 -0.631,-0.711 -1.004,-1.004 l -49.375,-38.849 c -2.604,-2.045 -6.372,-1.595 -8.421,1.005 z"
         style="fill:#ffffff" />
      <path
         inkscape:connector-curvature="0"
         id="path4795"
         d="m 379.713,272.181 c -3.276,-0.496 -6.335,1.758 -6.831,5.034 l 0,0.001 -17.537,115.873 c -0.497,3.276 1.756,6.335 5.033,6.832 3.277,0.497 6.335,-1.756 6.832,-5.033 l 17.537,-115.874 c 0.498,-3.276 -1.754,-6.336 -5.03,-6.833 -0.002,0.001 -0.003,0.001 -0.004,0 z"
         style="fill:#ffffff" />
      <path
         inkscape:connector-curvature="0"
         id="path4797"
         d="m 98.631,80.346 c -31.833,0 -57.639,25.806 -57.639,57.639 0,31.833 25.806,57.639 57.639,57.639 31.833,0 57.639,-25.806 57.639,-57.639 C 156.236,106.166 130.45,80.38 98.631,80.346 Z m 0,103.278 c -25.206,0 -45.639,-20.433 -45.639,-45.639 0,-25.206 20.433,-45.639 45.639,-45.639 25.206,0 45.639,20.433 45.639,45.639 -0.028,25.195 -20.445,45.611 -45.639,45.639 z"
         style="fill:#ffffff" />
      <path
         inkscape:connector-curvature="0"
         id="path4799"
         d="m 378.464,181.279 c 0.156,-12.34 -9.721,-22.47 -22.061,-22.626 -12.34,-0.156 -22.47,9.721 -22.626,22.061 -0.075,5.955 2.229,11.693 6.402,15.941 4.167,4.198 9.857,6.528 15.771,6.46 l 0.153,0 c 5.857,0.084 11.506,-2.167 15.7,-6.255 4.233,-4.081 6.635,-9.701 6.661,-15.581 z m -15.084,7.241 c -4.074,4.019 -10.635,3.974 -14.654,-0.1 -4.019,-4.074 -3.974,-10.635 0.1,-14.654 4.074,-4.019 10.635,-3.974 14.654,0.1 1.929,1.956 3.003,4.598 2.985,7.346 -0.009,2.751 -1.12,5.383 -3.085,7.308 z"
         style="fill:#ffffff" />
      <path
         inkscape:connector-curvature="0"
         id="path4801"
         d="m 380.448,157.115 c 8.676,8.792 22.836,8.886 31.628,0.211 8.792,-8.676 8.886,-22.836 0.211,-31.628 -8.675,-8.792 -22.836,-8.886 -31.628,-0.211 -4.222,4.166 -6.616,9.839 -6.656,15.77 -0.047,5.933 2.273,11.64 6.445,15.858 z m 8.64,-23.051 c 1.939,-1.909 4.557,-2.97 7.278,-2.949 l 0.071,0 c 2.748,-0.01 5.383,1.09 7.308,3.051 4.02,4.075 3.975,10.637 -0.1,14.657 -4.075,4.02 -10.637,3.975 -14.657,-0.1 -4.019,-4.075 -3.975,-10.636 0.1,-14.656 z"
         style="fill:#ffffff" />
      <path
         inkscape:connector-curvature="0"
         id="path4803"
         d="m 332.045,125.46 c -8.734,-8.734 -22.895,-8.734 -31.629,0 -8.734,8.734 -8.734,22.895 0,31.629 8.734,8.734 22.895,8.734 31.629,0 8.719,-8.74 8.719,-22.888 0,-31.629 z m -8.485,23.143 c -4.048,4.044 -10.607,4.041 -14.651,-0.007 -4.044,-4.048 -4.041,-10.607 0.007,-14.651 4.045,-4.041 10.599,-4.041 14.645,0 4.048,3.997 4.089,10.518 0.092,14.566 -0.032,0.031 -0.062,0.062 -0.093,0.092 z"
         style="fill:#ffffff" />
      <path
         inkscape:connector-curvature="0"
         id="path4805"
         d="m 356.233,123.637 c 12.351,-0.001 22.362,-10.014 22.361,-22.365 -10e-4,-12.351 -10.014,-22.362 -22.365,-22.361 -12.351,0.001 -22.362,10.014 -22.361,22.365 0,5.93 2.357,11.618 6.55,15.811 4.185,4.208 9.88,6.567 15.815,6.55 z m -7.329,-29.694 c 4.048,-4.047 10.61,-4.047 14.657,0.001 4.047,4.048 4.047,10.61 -10e-4,14.657 -4.048,4.047 -10.61,4.047 -14.657,-0.001 -1.943,-1.944 -3.035,-4.579 -3.035,-7.328 -0.008,-2.75 1.085,-5.389 3.036,-7.329 z"
         style="fill:#ffffff" />
      <path
         inkscape:connector-curvature="0"
         id="path4807"
         d="m 261.391,175.115 -68,0 c -3.314,0 -6,2.686 -6,6 0,3.314 2.686,6 6,6 l 68,0 c 3.314,0 6,-2.686 6,-6 0,-3.314 -2.686,-6 -6,-6 z"
         style="fill:#ffffff" />
    </g>
    <g
       style="opacity:0.117;fill:#ffffff"
       id="g4809"
       transform="matrix(1.0061231,-0.29599299,0.24451423,1.2861976,369.91055,543.65408)">
      <path
         style="fill:#ffffff"
         id="path4811"
         d="m 48.16,44.4 -2.244,1.3 A 8,8 0 0 0 44,44.587 L 44,42 l -6,0 0,2.587"
         inkscape:connector-curvature="0" />
      <path
         style="fill:#ffffff"
         id="path4813"
         d="m 41,48 a 4,4 0 1 0 4,4 4,4 0 0 0 -4,-4 z m 0,6 a 2,2 0 1 1 2,-2 2,2 0 0 1 -2,2 z"
         inkscape:connector-curvature="0" />
      <path
         style="fill:#ffffff"
         id="path4815"
         d="m 38,2 -12,0 0,20 12,0 z m -2,2 0,12 -8,0 0,-12 z m -4,16 -4,0 0,-2 8,0 0,2 z"
         inkscape:connector-curvature="0" />
      <path
         style="fill:#ffffff"
         id="path4817"
         d="M 33,19"
         inkscape:connector-curvature="0" />
      <polygon
         style="fill:#ffffff"
         id="polygon4819"
         points="51,28 33,28 33,24 31,24 31,28 13,28 13,24 13,24 11,24 11,30 31,30 31,34 33,34 33,30 53,30 53,24 51,24 " />
      <path
         style="fill:#ffffff"
         id="path4821"
         d="m 8,20 -2,0 0,2 12,0 0,-2 -2,0 0,-2 6,0 0,-16 -20,0 0,16 6,0 z m 6,0 -4,0 0,-2 4,0 z M 4,4 20,4 20,12 4,12 Z m 0,12 0,-2 16,0 0,2 z"
         inkscape:connector-curvature="0" />
      <path
         style="fill:#ffffff"
         id="path4823"
         d="M 42,22 62,22 62,2 42,2 Z m 18,-2 -16,0 0,-10 16,0 z M 44,4 60,4 60,8 44,8 Z"
         inkscape:connector-curvature="0" />
      <path
         style="fill:#ffffff"
         id="path4825"
         d="M 46.55,5.17"
         inkscape:connector-curvature="0" />
      <path
         style="fill:#ffffff"
         id="path4827"
         d="M 49.71,5.29"
         inkscape:connector-curvature="0" />
      <path
         style="fill:#ffffff"
         id="path4829"
         d="M 52.71,5.29"
         inkscape:connector-curvature="0" />
    </g>
    <g
       transform="matrix(1.0061231,-0.29599299,0.24451423,1.2861976,260.10789,443.90892)"
       id="g4831"
       style="opacity:0.117;fill:#ffffff">
      <path
         inkscape:connector-curvature="0"
         d="m 48.16,44.4 -2.244,1.3 A 8,8 0 0 0 44,44.587 L 44,42 l -6,0 0,2.587"
         id="path4833"
         style="fill:#ffffff" />
      <path
         inkscape:connector-curvature="0"
         d="m 41,48 a 4,4 0 1 0 4,4 4,4 0 0 0 -4,-4 z m 0,6 a 2,2 0 1 1 2,-2 2,2 0 0 1 -2,2 z"
         id="path4835"
         style="fill:#ffffff" />
      <path
         inkscape:connector-curvature="0"
         d="m 38,2 -12,0 0,20 12,0 z m -2,2 0,12 -8,0 0,-12 z m -4,16 -4,0 0,-2 8,0 0,2 z"
         id="path4837"
         style="fill:#ffffff" />
      <path
         inkscape:connector-curvature="0"
         d="M 33,19"
         id="path4839"
         style="fill:#ffffff" />
      <polygon
         points="33,28 33,24 31,24 31,28 13,28 13,24 13,24 11,24 11,30 31,30 31,34 33,34 33,30 53,30 53,24 51,24 51,28 "
         id="polygon4841"
         style="fill:#ffffff" />
      <path
         inkscape:connector-curvature="0"
         d="m 8,20 -2,0 0,2 12,0 0,-2 -2,0 0,-2 6,0 0,-16 -20,0 0,16 6,0 z m 6,0 -4,0 0,-2 4,0 z M 4,4 20,4 20,12 4,12 Z m 0,12 0,-2 16,0 0,2 z"
         id="path4843"
         style="fill:#ffffff" />
      <path
         inkscape:connector-curvature="0"
         d="M 42,22 62,22 62,2 42,2 Z m 18,-2 -16,0 0,-10 16,0 z M 44,4 60,4 60,8 44,8 Z"
         id="path4845"
         style="fill:#ffffff" />
      <path
         inkscape:connector-curvature="0"
         d="M 46.55,5.17"
         id="path4847"
         style="fill:#ffffff" />
      <path
         inkscape:connector-curvature="0"
         d="M 49.71,5.29"
         id="path4849"
         style="fill:#ffffff" />
      <path
         inkscape:connector-curvature="0"
         d="M 52.71,5.29"
         id="path4851"
         style="fill:#ffffff" />
    </g>
    <g
       style="opacity:0.117;fill:#ffffff"
       id="g4853"
       transform="matrix(0.91816922,0.49230485,-0.805109,1.0565466,597.03074,485.9486)">
      <path
         style="fill:#ffffff"
         id="path4855"
         d="m 48.16,44.4 -2.244,1.3 A 8,8 0 0 0 44,44.587 L 44,42 l -6,0 0,2.587"
         inkscape:connector-curvature="0" />
      <path
         style="fill:#ffffff"
         id="path4857"
         d="m 41,48 a 4,4 0 1 0 4,4 4,4 0 0 0 -4,-4 z m 0,6 a 2,2 0 1 1 2,-2 2,2 0 0 1 -2,2 z"
         inkscape:connector-curvature="0" />
      <path
         style="fill:#ffffff"
         id="path4859"
         d="m 38,2 -12,0 0,20 12,0 z m -2,2 0,12 -8,0 0,-12 z m -4,16 -4,0 0,-2 8,0 0,2 z"
         inkscape:connector-curvature="0" />
      <path
         style="fill:#ffffff"
         id="path4861"
         d="M 33,19"
         inkscape:connector-curvature="0" />
      <polygon
         style="fill:#ffffff"
         id="polygon4863"
         points="31,24 31,28 13,28 13,24 13,24 11,24 11,30 31,30 31,34 33,34 33,30 53,30 53,24 51,24 51,28 33,28 33,24 " />
      <path
         style="fill:#ffffff"
         id="path4865"
         d="m 8,20 -2,0 0,2 12,0 0,-2 -2,0 0,-2 6,0 0,-16 -20,0 0,16 6,0 z m 6,0 -4,0 0,-2 4,0 z M 4,4 20,4 20,12 4,12 Z m 0,12 0,-2 16,0 0,2 z"
         inkscape:connector-curvature="0" />
      <path
         style="fill:#ffffff"
         id="path4867"
         d="M 42,22 62,22 62,2 42,2 Z m 18,-2 -16,0 0,-10 16,0 z M 44,4 60,4 60,8 44,8 Z"
         inkscape:connector-curvature="0" />
      <path
         style="fill:#ffffff"
         id="path4869"
         d="M 46.55,5.17"
         inkscape:connector-curvature="0" />
      <path
         style="fill:#ffffff"
         id="path4871"
         d="M 49.71,5.29"
         inkscape:connector-curvature="0" />
      <path
         style="fill:#ffffff"
         id="path4873"
         d="M 52.71,5.29"
         inkscape:connector-curvature="0" />
    </g>
    <g
       transform="matrix(0.96740653,-0.39683178,0.38646354,1.2539574,418.8249,836.29792)"
       id="g4875"
       style="opacity:0.117;fill:#ffffff">
      <path
         inkscape:connector-curvature="0"
         d="m 48.16,44.4 -2.244,1.3 A 8,8 0 0 0 44,44.587 L 44,42 l -6,0 0,2.587"
         id="path4877"
         style="fill:#ffffff" />
      <path
         inkscape:connector-curvature="0"
         d="m 41,48 a 4,4 0 1 0 4,4 4,4 0 0 0 -4,-4 z m 0,6 a 2,2 0 1 1 2,-2 2,2 0 0 1 -2,2 z"
         id="path4879"
         style="fill:#ffffff" />
      <path
         inkscape:connector-curvature="0"
         d="m 38,2 -12,0 0,20 12,0 z m -2,2 0,12 -8,0 0,-12 z m -4,16 -4,0 0,-2 8,0 0,2 z"
         id="path4881"
         style="fill:#ffffff" />
      <path
         inkscape:connector-curvature="0"
         d="M 33,19"
         id="path4883"
         style="fill:#ffffff" />
      <polygon
         points="13,28 13,24 13,24 11,24 11,30 31,30 31,34 33,34 33,30 53,30 53,24 51,24 51,28 33,28 33,24 31,24 31,28 "
         id="polygon4885"
         style="fill:#ffffff" />
      <path
         inkscape:connector-curvature="0"
         d="m 8,20 -2,0 0,2 12,0 0,-2 -2,0 0,-2 6,0 0,-16 -20,0 0,16 6,0 z m 6,0 -4,0 0,-2 4,0 z M 4,4 20,4 20,12 4,12 Z m 0,12 0,-2 16,0 0,2 z"
         id="path4887"
         style="fill:#ffffff" />
      <path
         inkscape:connector-curvature="0"
         d="M 42,22 62,22 62,2 42,2 Z m 18,-2 -16,0 0,-10 16,0 z M 44,4 60,4 60,8 44,8 Z"
         id="path4889"
         style="fill:#ffffff" />
      <path
         inkscape:connector-curvature="0"
         d="M 46.55,5.17"
         id="path4891"
         style="fill:#ffffff" />
      <path
         inkscape:connector-curvature="0"
         d="M 49.71,5.29"
         id="path4893"
         style="fill:#ffffff" />
      <path
         inkscape:connector-curvature="0"
         d="M 52.71,5.29"
         id="path4895"
         style="fill:#ffffff" />
    </g>
    <g
       style="opacity:0.117;fill:#ffffff"
       id="g4897"
       transform="matrix(0.93209113,0.46777264,-0.77416374,1.0774857,649.96915,681.06709)">
      <path
         style="fill:#ffffff"
         id="path4899"
         d="m 48.16,44.4 -2.244,1.3 A 8,8 0 0 0 44,44.587 L 44,42 l -6,0 0,2.587"
         inkscape:connector-curvature="0" />
      <path
         style="fill:#ffffff"
         id="path4901"
         d="m 41,48 a 4,4 0 1 0 4,4 4,4 0 0 0 -4,-4 z m 0,6 a 2,2 0 1 1 2,-2 2,2 0 0 1 -2,2 z"
         inkscape:connector-curvature="0" />
      <path
         style="fill:#ffffff"
         id="path4903"
         d="m 38,2 -12,0 0,20 12,0 z m -2,2 0,12 -8,0 0,-12 z m -4,16 -4,0 0,-2 8,0 0,2 z"
         inkscape:connector-curvature="0" />
      <path
         style="fill:#ffffff"
         id="path4905"
         d="M 33,19"
         inkscape:connector-curvature="0" />
      <polygon
         style="fill:#ffffff"
         id="polygon4907"
         points="13,24 11,24 11,30 31,30 31,34 33,34 33,30 53,30 53,24 51,24 51,28 33,28 33,24 31,24 31,28 13,28 13,24 " />
      <path
         style="fill:#ffffff"
         id="path4909"
         d="m 8,20 -2,0 0,2 12,0 0,-2 -2,0 0,-2 6,0 0,-16 -20,0 0,16 6,0 z m 6,0 -4,0 0,-2 4,0 z M 4,4 20,4 20,12 4,12 Z m 0,12 0,-2 16,0 0,2 z"
         inkscape:connector-curvature="0" />
      <path
         style="fill:#ffffff"
         id="path4911"
         d="M 42,22 62,22 62,2 42,2 Z m 18,-2 -16,0 0,-10 16,0 z M 44,4 60,4 60,8 44,8 Z"
         inkscape:connector-curvature="0" />
      <path
         style="fill:#ffffff"
         id="path4913"
         d="M 46.55,5.17"
         inkscape:connector-curvature="0" />
      <path
         style="fill:#ffffff"
         id="path4915"
         d="M 49.71,5.29"
         inkscape:connector-curvature="0" />
      <path
         style="fill:#ffffff"
         id="path4917"
         d="M 52.71,5.29"
         inkscape:connector-curvature="0" />
    </g>
    <g
       transform="matrix(0.93120967,-0.46937505,0.48986447,1.2204741,464.37146,709.09955)"
       id="g4919"
       style="opacity:0.117;fill:#ffffff">
      <path
         inkscape:connector-curvature="0"
         d="m 48.16,44.4 -2.244,1.3 A 8,8 0 0 0 44,44.587 L 44,42 l -6,0 0,2.587"
         id="path4921"
         style="fill:#ffffff" />
      <path
         inkscape:connector-curvature="0"
         d="m 41,48 a 4,4 0 1 0 4,4 4,4 0 0 0 -4,-4 z m 0,6 a 2,2 0 1 1 2,-2 2,2 0 0 1 -2,2 z"
         id="path4923"
         style="fill:#ffffff" />
      <path
         inkscape:connector-curvature="0"
         d="m 38,2 -12,0 0,20 12,0 z m -2,2 0,12 -8,0 0,-12 z m -4,16 -4,0 0,-2 8,0 0,2 z"
         id="path4925"
         style="fill:#ffffff" />
      <path
         inkscape:connector-curvature="0"
         d="M 33,19"
         id="path4927"
         style="fill:#ffffff" />
      <polygon
         points="11,30 31,30 31,34 33,34 33,30 53,30 53,24 51,24 51,28 33,28 33,24 31,24 31,28 13,28 13,24 13,24 11,24 "
         id="polygon4929"
         style="fill:#ffffff" />
      <path
         inkscape:connector-curvature="0"
         d="m 8,20 -2,0 0,2 12,0 0,-2 -2,0 0,-2 6,0 0,-16 -20,0 0,16 6,0 z m 6,0 -4,0 0,-2 4,0 z M 4,4 20,4 20,12 4,12 Z m 0,12 0,-2 16,0 0,2 z"
         id="path4931"
         style="fill:#ffffff" />
      <path
         inkscape:connector-curvature="0"
         d="M 42,22 62,22 62,2 42,2 Z m 18,-2 -16,0 0,-10 16,0 z M 44,4 60,4 60,8 44,8 Z"
         id="path4933"
         style="fill:#ffffff" />
      <path
         inkscape:connector-curvature="0"
         d="M 46.55,5.17"
         id="path4935"
         style="fill:#ffffff" />
      <path
         inkscape:connector-curvature="0"
         d="M 49.71,5.29"
         id="path4937"
         style="fill:#ffffff" />
      <path
         inkscape:connector-curvature="0"
         d="M 52.71,5.29"
         id="path4939"
         style="fill:#ffffff" />
    </g>
    <g
       style="opacity:0.117;fill:#ffffff"
       id="g4941"
       transform="matrix(0.92471888,0.4809652,-0.79082262,1.0663665,241.30604,692.78346)">
      <path
         style="fill:#ffffff"
         id="path4943"
         d="m 48.16,44.4 -2.244,1.3 A 8,8 0 0 0 44,44.587 L 44,42 l -6,0 0,2.587"
         inkscape:connector-curvature="0" />
      <path
         style="fill:#ffffff"
         id="path4945"
         d="m 41,48 a 4,4 0 1 0 4,4 4,4 0 0 0 -4,-4 z m 0,6 a 2,2 0 1 1 2,-2 2,2 0 0 1 -2,2 z"
         inkscape:connector-curvature="0" />
      <path
         style="fill:#ffffff"
         id="path4947"
         d="m 38,2 -12,0 0,20 12,0 z m -2,2 0,12 -8,0 0,-12 z m -4,16 -4,0 0,-2 8,0 0,2 z"
         inkscape:connector-curvature="0" />
      <path
         style="fill:#ffffff"
         id="path4949"
         d="M 33,19"
         inkscape:connector-curvature="0" />
      <polygon
         style="fill:#ffffff"
         id="polygon4951"
         points="31,34 33,34 33,30 53,30 53,24 51,24 51,28 33,28 33,24 31,24 31,28 13,28 13,24 13,24 11,24 11,30 31,30 " />
      <path
         style="fill:#ffffff"
         id="path4953"
         d="m 8,20 -2,0 0,2 12,0 0,-2 -2,0 0,-2 6,0 0,-16 -20,0 0,16 6,0 z m 6,0 -4,0 0,-2 4,0 z M 4,4 20,4 20,12 4,12 Z m 0,12 0,-2 16,0 0,2 z"
         inkscape:connector-curvature="0" />
      <path
         style="fill:#ffffff"
         id="path4955"
         d="M 42,22 62,22 62,2 42,2 Z m 18,-2 -16,0 0,-10 16,0 z M 44,4 60,4 60,8 44,8 Z"
         inkscape:connector-curvature="0" />
      <path
         style="fill:#ffffff"
         id="path4957"
         d="M 46.55,5.17"
         inkscape:connector-curvature="0" />
      <path
         style="fill:#ffffff"
         id="path4959"
         d="M 49.71,5.29"
         inkscape:connector-curvature="0" />
      <path
         style="fill:#ffffff"
         id="path4961"
         d="M 52.71,5.29"
         inkscape:connector-curvature="0" />
    </g>
  </g>
</svg>
