<?xml version="1.0" encoding="UTF-8" standalone="no"?>
<!-- Generator: Adobe Illustrator 19.0.0, SVG Export Plug-In . SVG Version: 6.00 Build 0)  -->

<svg
   xmlns:dc="http://purl.org/dc/elements/1.1/"
   xmlns:cc="http://creativecommons.org/ns#"
   xmlns:rdf="http://www.w3.org/1999/02/22-rdf-syntax-ns#"
   xmlns:svg="http://www.w3.org/2000/svg"
   xmlns="http://www.w3.org/2000/svg"
   xmlns:sodipodi="http://sodipodi.sourceforge.net/DTD/sodipodi-0.dtd"
   xmlns:inkscape="http://www.inkscape.org/namespaces/inkscape"
   version="1.1"
   id="Layer_1"
   x="0px"
   y="0px"
   viewBox="0 0 426.668 426.668"
   style="enable-background:new 0 0 426.668 426.668;"
   xml:space="preserve"
   inkscape:version="0.91 r13725"
   sodipodi:docname="heart.svg"><metadata
   id="metadata39"><rdf:RDF><cc:Work
       rdf:about=""><dc:format>image/svg+xml</dc:format><dc:type
         rdf:resource="http://purl.org/dc/dcmitype/StillImage" /></cc:Work></rdf:RDF></metadata><defs
   id="defs37" /><sodipodi:namedview
   pagecolor="#ffffff"
   bordercolor="#666666"
   borderopacity="1"
   objecttolerance="10"
   gridtolerance="10"
   guidetolerance="10"
   inkscape:pageopacity="0"
   inkscape:pageshadow="2"
   inkscape:window-width="1024"
   inkscape:window-height="712"
   id="namedview35"
   showgrid="false"
   inkscape:zoom="0.55312327"
   inkscape:cx="-103.05117"
   inkscape:cy="-128.36198"
   inkscape:window-x="-4"
   inkscape:window-y="-4"
   inkscape:window-maximized="1"
   inkscape:current-layer="Layer_1" />
<path
   style="fill:#ff6458;fill-opacity:1"
   d="M401.788,74.476c-63.492-82.432-188.446-33.792-188.446,49.92  c0-83.712-124.962-132.356-188.463-49.92c-65.63,85.222-0.943,234.509,188.459,320.265  C402.731,308.985,467.418,159.698,401.788,74.476z"
   id="path3" />
<g
   id="g5">
</g>
<g
   id="g7">
</g>
<g
   id="g9">
</g>
<g
   id="g11">
</g>
<g
   id="g13">
</g>
<g
   id="g15">
</g>
<g
   id="g17">
</g>
<g
   id="g19">
</g>
<g
   id="g21">
</g>
<g
   id="g23">
</g>
<g
   id="g25">
</g>
<g
   id="g27">
</g>
<g
   id="g29">
</g>
<g
   id="g31">
</g>
<g
   id="g33">
</g>
<path
   style="opacity:0.98999999;fill:#ff6458;fill-opacity:1;stroke:none;stroke-width:7;stroke-miterlimit:4;stroke-dasharray:none;stroke-dashoffset:0;stroke-opacity:1"
   d="m -149.42283,547.86523 a 107.57096,102.14721 0 0 0 -102.71093,88.36719 107.57096,102.14721 0 0 0 90.97851,114.77735 l 4.7168,0.55664 a 107.57096,102.14721 0 0 0 117.791021,-90.14649 107.57096,102.14721 0 0 0 -93.626961,-112.8418 107.57096,102.14721 0 0 0 -17.14844,-0.71289 z m -52.77343,61.2461 52.05273,0 0,10.49023 -41.21484,0 0,25.03125 35.41211,0 0,10.49024 -35.41211,0 0,42.73242 -10.83789,0 0,-88.74414 z m 64.36719,0 53.695311,0 0,10.49023 -42.857421,0 0,24.31641 42.857421,0 0,10.49023 -42.857421,0 0,32.95703 42.857421,0 0,10.49024 -53.695311,0 0,-88.74414 z"
   id="path4552"
   inkscape:connector-curvature="0"
   inkscape:export-filename="C:\Documents and Settings\Administrator\Desktop\icon.png"
   inkscape:export-xdpi="10.55"
   inkscape:export-ydpi="10.55" /></svg>