<?xml version="1.0" encoding="UTF-8" standalone="no"?>
<!-- Generator: Adobe Illustrator 19.0.0, SVG Export Plug-In . SVG Version: 6.00 Build 0)  -->

<svg
   xmlns:dc="http://purl.org/dc/elements/1.1/"
   xmlns:cc="http://creativecommons.org/ns#"
   xmlns:rdf="http://www.w3.org/1999/02/22-rdf-syntax-ns#"
   xmlns:svg="http://www.w3.org/2000/svg"
   xmlns="http://www.w3.org/2000/svg"
   xmlns:sodipodi="http://sodipodi.sourceforge.net/DTD/sodipodi-0.dtd"
   xmlns:inkscape="http://www.inkscape.org/namespaces/inkscape"
   version="1.1"
   id="Layer_1"
   x="0px"
   y="0px"
   viewBox="0 0 426.668 426.668"
   style="enable-background:new 0 0 426.668 426.668;"
   xml:space="preserve"
   inkscape:version="0.91 r13725"
   sodipodi:docname="heart.svg"><metadata
   id="metadata39"><rdf:RDF><cc:Work
       rdf:about=""><dc:format>image/svg+xml</dc:format><dc:type
         rdf:resource="http://purl.org/dc/dcmitype/StillImage" /></cc:Work></rdf:RDF></metadata><defs
   id="defs37" /><sodipodi:namedview
   pagecolor="#ffffff"
   bordercolor="#666666"
   borderopacity="1"
   objecttolerance="10"
   gridtolerance="10"
   guidetolerance="10"
   inkscape:pageopacity="0"
   inkscape:pageshadow="2"
   inkscape:window-width="1024"
   inkscape:window-height="712"
   id="namedview35"
   showgrid="false"
   inkscape:zoom="0.55312327"
   inkscape:cx="213.334"
   inkscape:cy="213.334"
   inkscape:window-x="-4"
   inkscape:window-y="-4"
   inkscape:window-maximized="1"
   inkscape:current-layer="Layer_1" />
<path
   style="fill:#a4e3a1;fill-opacity:1"
   d="M401.788,74.476c-63.492-82.432-188.446-33.792-188.446,49.92  c0-83.712-124.962-132.356-188.463-49.92c-65.63,85.222-0.943,234.509,188.459,320.265  C402.731,308.985,467.418,159.698,401.788,74.476z"
   id="path3" />
<g
   id="g5">
</g>
<g
   id="g7">
</g>
<g
   id="g9">
</g>
<g
   id="g11">
</g>
<g
   id="g13">
</g>
<g
   id="g15">
</g>
<g
   id="g17">
</g>
<g
   id="g19">
</g>
<g
   id="g21">
</g>
<g
   id="g23">
</g>
<g
   id="g25">
</g>
<g
   id="g27">
</g>
<g
   id="g29">
</g>
<g
   id="g31">
</g>
<g
   id="g33">
</g>
<path
   style="opacity:0.225;fill:#a061e3;fill-opacity:1;stroke:none;stroke-width:10.63000011;stroke-miterlimit:4;stroke-dasharray:none;stroke-dashoffset:0;stroke-opacity:1"
   id="path5761"
   sodipodi:type="arc"
   sodipodi:cx="59.661213"
   sodipodi:cy="70.50869"
   sodipodi:rx="21.694983"
   sodipodi:ry="21.694983"
   sodipodi:start="1.7165086"
   sodipodi:end="1.6723082"
   sodipodi:open="true"
   d="M 56.511162,91.973765 A 21.694983,21.694983 0 0 1 38.162641,67.596018 21.694983,21.694983 0 0 1 62.33615,48.979245 21.694983,21.694983 0 0 1 81.218901,72.945566 21.694983,21.694983 0 0 1 57.462695,92.091989" /><path
   d="m 204.76021,234.79907 a 21.694983,21.694983 0 0 1 -18.34852,-24.37774 21.694983,21.694983 0 0 1 24.17351,-18.61677 21.694983,21.694983 0 0 1 18.88275,23.96632 21.694983,21.694983 0 0 1 -23.7562,19.14642"
   sodipodi:open="true"
   sodipodi:end="1.6723082"
   sodipodi:start="1.7165086"
   sodipodi:ry="21.694983"
   sodipodi:rx="21.694983"
   sodipodi:cy="213.334"
   sodipodi:cx="207.91026"
   sodipodi:type="arc"
   id="path5763"
   style="opacity:0.225;fill:#a061e3;fill-opacity:1;stroke:none;stroke-width:10.63000011;stroke-miterlimit:4;stroke-dasharray:none;stroke-dashoffset:0;stroke-opacity:1" /><path
   style="opacity:0.225;fill:#a061e3;fill-opacity:1;stroke:none;stroke-width:10.63000011;stroke-miterlimit:4;stroke-dasharray:none;stroke-dashoffset:0;stroke-opacity:1"
   id="path5765"
   sodipodi:type="arc"
   sodipodi:cx="83.164108"
   sodipodi:cy="195.25485"
   sodipodi:rx="21.694983"
   sodipodi:ry="21.694983"
   sodipodi:start="1.7165086"
   sodipodi:end="1.6723082"
   sodipodi:open="true"
   d="M 80.014058,216.71993 A 21.694983,21.694983 0 0 1 61.665536,192.34218 21.694983,21.694983 0 0 1 85.839046,173.72541 21.694983,21.694983 0 0 1 104.7218,197.69173 21.694983,21.694983 0 0 1 80.96559,216.83815" /><path
   d="m 268.03724,176.94579 a 21.694983,21.694983 0 0 1 -18.34853,-24.37775 21.694983,21.694983 0 0 1 24.17351,-18.61677 21.694983,21.694983 0 0 1 18.88275,23.96632 21.694983,21.694983 0 0 1 -23.7562,19.14642"
   sodipodi:open="true"
   sodipodi:end="1.6723082"
   sodipodi:start="1.7165086"
   sodipodi:ry="21.694983"
   sodipodi:rx="21.694983"
   sodipodi:cy="155.48071"
   sodipodi:cx="271.18729"
   sodipodi:type="arc"
   id="path5767"
   style="opacity:0.225;fill:#a061e3;fill-opacity:1;stroke:none;stroke-width:10.63000011;stroke-miterlimit:4;stroke-dasharray:none;stroke-dashoffset:0;stroke-opacity:1" /><path
   style="opacity:0.225;fill:#a061e3;fill-opacity:1;stroke:none;stroke-width:10.63000011;stroke-miterlimit:4;stroke-dasharray:none;stroke-dashoffset:0;stroke-opacity:1"
   id="path5769"
   sodipodi:type="arc"
   sodipodi:cx="153.67279"
   sodipodi:cy="121.13033"
   sodipodi:rx="21.694983"
   sodipodi:ry="21.694983"
   sodipodi:start="1.7165086"
   sodipodi:end="1.6723082"
   sodipodi:open="true"
   d="m 150.52274,142.59541 a 21.694983,21.694983 0 0 1 -18.34852,-24.37775 21.694983,21.694983 0 0 1 24.17351,-18.616771 21.694983,21.694983 0 0 1 18.88275,23.966321 21.694983,21.694983 0 0 1 -23.75621,19.14642" /><path
   d="M 307.81138,111.86085 A 21.694983,21.694983 0 0 1 289.46285,87.483103 21.694983,21.694983 0 0 1 313.63636,68.86633 21.694983,21.694983 0 0 1 332.51911,92.832651 21.694983,21.694983 0 0 1 308.76291,111.97907"
   sodipodi:open="true"
   sodipodi:end="1.6723082"
   sodipodi:start="1.7165086"
   sodipodi:ry="21.694983"
   sodipodi:rx="21.694983"
   sodipodi:cy="90.395775"
   sodipodi:cx="310.96143"
   sodipodi:type="arc"
   id="path5771"
   style="opacity:0.225;fill:#a061e3;fill-opacity:1;stroke:none;stroke-width:10.63000011;stroke-miterlimit:4;stroke-dasharray:none;stroke-dashoffset:0;stroke-opacity:1" /><path
   style="opacity:0.225;fill:#a061e3;fill-opacity:1;stroke:none;stroke-width:10.63000011;stroke-miterlimit:4;stroke-dasharray:none;stroke-dashoffset:0;stroke-opacity:1"
   id="path5773"
   sodipodi:type="arc"
   sodipodi:cx="352.54349"
   sodipodi:cy="202.48653"
   sodipodi:rx="21.694983"
   sodipodi:ry="21.694983"
   sodipodi:start="1.7165086"
   sodipodi:end="1.6723082"
   sodipodi:open="true"
   d="m 349.39344,223.9516 a 21.694983,21.694983 0 0 1 -18.34852,-24.37775 21.694983,21.694983 0 0 1 24.17351,-18.61677 21.694983,21.694983 0 0 1 18.88275,23.96632 21.694983,21.694983 0 0 1 -23.75621,19.14643" /><path
   d="m 369.28049,153.4429 a 21.694983,21.694983 0 0 1 -18.34852,-24.37774 21.694983,21.694983 0 0 1 24.17351,-18.61678 21.694983,21.694983 0 0 1 18.88275,23.96633 21.694983,21.694983 0 0 1 -23.75621,19.14642"
   sodipodi:open="true"
   sodipodi:end="1.6723082"
   sodipodi:start="1.7165086"
   sodipodi:ry="21.694983"
   sodipodi:rx="21.694983"
   sodipodi:cy="131.97783"
   sodipodi:cx="372.43054"
   sodipodi:type="arc"
   id="path5775"
   style="opacity:0.225;fill:#a061e3;fill-opacity:1;stroke:none;stroke-width:10.63000011;stroke-miterlimit:4;stroke-dasharray:none;stroke-dashoffset:0;stroke-opacity:1" /><path
   style="opacity:0.225;fill:#a061e3;fill-opacity:1;stroke:none;stroke-width:10.63000011;stroke-miterlimit:4;stroke-dasharray:none;stroke-dashoffset:0;stroke-opacity:1"
   id="path5777"
   sodipodi:type="arc"
   sodipodi:cx="301.92188"
   sodipodi:cy="262.14774"
   sodipodi:rx="21.694983"
   sodipodi:ry="21.694983"
   sodipodi:start="1.7165086"
   sodipodi:end="1.6723082"
   sodipodi:open="true"
   d="m 298.77182,283.61281 a 21.694983,21.694983 0 0 1 -18.34852,-24.37775 21.694983,21.694983 0 0 1 24.17351,-18.61677 21.694983,21.694983 0 0 1 18.88275,23.96632 21.694983,21.694983 0 0 1 -23.7562,19.14642" /><path
   d="m 210.18398,308.92363 a 21.694983,21.694983 0 0 1 -18.34852,-24.37774 21.694983,21.694983 0 0 1 24.17351,-18.61678 21.694983,21.694983 0 0 1 18.88275,23.96632 21.694983,21.694983 0 0 1 -23.75621,19.14643"
   sodipodi:open="true"
   sodipodi:end="1.6723082"
   sodipodi:start="1.7165086"
   sodipodi:ry="21.694983"
   sodipodi:rx="21.694983"
   sodipodi:cy="287.45856"
   sodipodi:cx="213.33403"
   sodipodi:type="arc"
   id="path5779"
   style="opacity:0.225;fill:#a061e3;fill-opacity:1;stroke:none;stroke-width:10.63000011;stroke-miterlimit:4;stroke-dasharray:none;stroke-dashoffset:0;stroke-opacity:1" /><path
   style="opacity:0.225;fill:#a061e3;fill-opacity:1;stroke:none;stroke-width:10.63000011;stroke-miterlimit:4;stroke-dasharray:none;stroke-dashoffset:0;stroke-opacity:1"
   id="path5781"
   sodipodi:type="arc"
   sodipodi:cx="133.78577"
   sodipodi:cy="260.33981"
   sodipodi:rx="21.694983"
   sodipodi:ry="21.694983"
   sodipodi:start="1.7165086"
   sodipodi:end="1.6723082"
   sodipodi:open="true"
   d="m 130.63572,281.80489 a 21.694983,21.694983 0 0 1 -18.34853,-24.37775 21.694983,21.694983 0 0 1 24.17351,-18.61677 21.694983,21.694983 0 0 1 18.88275,23.96632 21.694983,21.694983 0 0 1 -23.7562,19.14642" /><path
   d="m 146.90696,204.06453 a 21.694983,21.694983 0 0 1 -18.34853,-24.37775 21.694983,21.694983 0 0 1 24.17351,-18.61677 21.694983,21.694983 0 0 1 18.88275,23.96632 21.694983,21.694983 0 0 1 -23.7562,19.14643"
   sodipodi:open="true"
   sodipodi:end="1.6723082"
   sodipodi:start="1.7165086"
   sodipodi:ry="21.694983"
   sodipodi:rx="21.694983"
   sodipodi:cy="182.59946"
   sodipodi:cx="150.05701"
   sodipodi:type="arc"
   id="path5783"
   style="opacity:0.225;fill:#a061e3;fill-opacity:1;stroke:none;stroke-width:10.63000011;stroke-miterlimit:4;stroke-dasharray:none;stroke-dashoffset:0;stroke-opacity:1" /><path
   style="opacity:0.225;fill:#a061e3;fill-opacity:1;stroke:none;stroke-width:10.63000011;stroke-miterlimit:4;stroke-dasharray:none;stroke-dashoffset:0;stroke-opacity:1"
   id="path5785"
   sodipodi:type="arc"
   sodipodi:cx="48.813751"
   sodipodi:cy="141.01741"
   sodipodi:rx="21.694983"
   sodipodi:ry="21.694983"
   sodipodi:start="1.7165086"
   sodipodi:end="1.6723082"
   sodipodi:open="true"
   d="m 45.663701,162.48249 a 21.694983,21.694983 0 0 1 -18.348522,-24.37775 21.694983,21.694983 0 0 1 24.17351,-18.61677 21.694983,21.694983 0 0 1 18.88275,23.96632 21.694983,21.694983 0 0 1 -23.756206,19.14642" /><path
   d="M 112.55657,88.357958 A 21.694983,21.694983 0 0 1 94.208047,63.980211 21.694983,21.694983 0 0 1 118.38156,45.363439 21.694983,21.694983 0 0 1 137.26431,69.32976 21.694983,21.694983 0 0 1 113.5081,88.476182"
   sodipodi:open="true"
   sodipodi:end="1.6723082"
   sodipodi:start="1.7165086"
   sodipodi:ry="21.694983"
   sodipodi:rx="21.694983"
   sodipodi:cy="66.892883"
   sodipodi:cx="115.70662"
   sodipodi:type="arc"
   id="path5787"
   style="opacity:0.225;fill:#a061e3;fill-opacity:1;stroke:none;stroke-width:10.63000011;stroke-miterlimit:4;stroke-dasharray:none;stroke-dashoffset:0;stroke-opacity:1" /><path
   style="opacity:0.225;fill:#a061e3;fill-opacity:1;stroke:none;stroke-width:10.63000011;stroke-miterlimit:4;stroke-dasharray:none;stroke-dashoffset:0;stroke-opacity:1"
   id="path5789"
   sodipodi:type="arc"
   sodipodi:cx="216.94987"
   sodipodi:cy="357.96722"
   sodipodi:rx="21.694983"
   sodipodi:ry="21.694983"
   sodipodi:start="1.7165086"
   sodipodi:end="1.6723082"
   sodipodi:open="true"
   d="m 213.79982,379.4323 a 21.694983,21.694983 0 0 1 -18.34852,-24.37775 21.694983,21.694983 0 0 1 24.17351,-18.61677 21.694983,21.694983 0 0 1 18.88275,23.96632 21.694983,21.694983 0 0 1 -23.7562,19.14642" /><path
   d="m 150.52279,348.69774 a 21.694983,21.694983 0 0 1 -18.34853,-24.37775 21.694983,21.694983 0 0 1 24.17351,-18.61677 21.694983,21.694983 0 0 1 18.88275,23.96632 21.694983,21.694983 0 0 1 -23.7562,19.14642"
   sodipodi:open="true"
   sodipodi:end="1.6723082"
   sodipodi:start="1.7165086"
   sodipodi:ry="21.694983"
   sodipodi:rx="21.694983"
   sodipodi:cy="327.23267"
   sodipodi:cx="153.67284"
   sodipodi:type="arc"
   id="path5791"
   style="opacity:0.225;fill:#a061e3;fill-opacity:1;stroke:none;stroke-width:10.63000011;stroke-miterlimit:4;stroke-dasharray:none;stroke-dashoffset:0;stroke-opacity:1" /><path
   style="opacity:0.225;fill:#a061e3;fill-opacity:1;stroke:none;stroke-width:10.63000011;stroke-miterlimit:4;stroke-dasharray:none;stroke-dashoffset:0;stroke-opacity:1"
   id="path5793"
   sodipodi:type="arc"
   sodipodi:cx="283.84274"
   sodipodi:cy="318.19308"
   sodipodi:rx="21.694983"
   sodipodi:ry="21.694983"
   sodipodi:start="1.7165086"
   sodipodi:end="1.6723082"
   sodipodi:open="true"
   d="m 280.69269,339.65816 a 21.694983,21.694983 0 0 1 -18.34852,-24.37775 21.694983,21.694983 0 0 1 24.17351,-18.61677 21.694983,21.694983 0 0 1 18.88275,23.96632 21.694983,21.694983 0 0 1 -23.75621,19.14642" /><path
   d="M 70.974522,272.76529 A 21.694983,21.694983 0 0 1 52.626,248.38754 21.694983,21.694983 0 0 1 76.79951,229.77077 21.694983,21.694983 0 0 1 95.68226,253.73709 21.694983,21.694983 0 0 1 71.926055,272.88352"
   sodipodi:open="true"
   sodipodi:end="1.6723082"
   sodipodi:start="1.7165086"
   sodipodi:ry="21.694983"
   sodipodi:rx="21.694983"
   sodipodi:cy="251.30022"
   sodipodi:cx="74.124573"
   sodipodi:type="arc"
   id="path5795"
   style="opacity:0.225;fill:#a061e3;fill-opacity:1;stroke:none;stroke-width:10.63000011;stroke-miterlimit:4;stroke-dasharray:none;stroke-dashoffset:0;stroke-opacity:1" /><path
   style="opacity:0.225;fill:#a061e3;fill-opacity:1;stroke:none;stroke-width:10.63000011;stroke-miterlimit:4;stroke-dasharray:none;stroke-dashoffset:0;stroke-opacity:1"
   id="path5797"
   sodipodi:type="arc"
   sodipodi:cx="354.35144"
   sodipodi:cy="258.53189"
   sodipodi:rx="21.694983"
   sodipodi:ry="21.694983"
   sodipodi:start="1.7165086"
   sodipodi:end="1.6723082"
   sodipodi:open="true"
   d="m 351.20139,279.99697 a 21.694983,21.694983 0 0 1 -18.34852,-24.37775 21.694983,21.694983 0 0 1 24.17351,-18.61677 21.694983,21.694983 0 0 1 18.88275,23.96632 21.694983,21.694983 0 0 1 -23.75621,19.14642" /><path
   d="m 271.65311,240.22283 a 21.694983,21.694983 0 0 1 -18.34852,-24.37775 21.694983,21.694983 0 0 1 24.17351,-18.61677 21.694983,21.694983 0 0 1 18.88275,23.96632 21.694983,21.694983 0 0 1 -23.75621,19.14642"
   sodipodi:open="true"
   sodipodi:end="1.6723082"
   sodipodi:start="1.7165086"
   sodipodi:ry="21.694983"
   sodipodi:rx="21.694983"
   sodipodi:cy="218.75775"
   sodipodi:cx="274.80316"
   sodipodi:type="arc"
   id="path5799"
   style="opacity:0.225;fill:#a061e3;fill-opacity:1;stroke:none;stroke-width:10.63000011;stroke-miterlimit:4;stroke-dasharray:none;stroke-dashoffset:0;stroke-opacity:1" /><path
   style="opacity:0.225;fill:#a061e3;fill-opacity:1;stroke:none;stroke-width:10.63000011;stroke-miterlimit:4;stroke-dasharray:none;stroke-dashoffset:0;stroke-opacity:1"
   id="path5801"
   sodipodi:type="arc"
   sodipodi:cx="213.33405"
   sodipodi:cy="146.44115"
   sodipodi:rx="21.694983"
   sodipodi:ry="21.694983"
   sodipodi:start="1.7165086"
   sodipodi:end="1.6723082"
   sodipodi:open="true"
   d="m 210.18399,167.90622 a 21.694983,21.694983 0 0 1 -18.34852,-24.37774 21.694983,21.694983 0 0 1 24.17351,-18.61678 21.694983,21.694983 0 0 1 18.88275,23.96632 21.694983,21.694983 0 0 1 -23.7562,19.14643" /><path
   d="m 92.669507,148.01915 a 21.694983,21.694983 0 0 1 -18.348522,-24.37774 21.694983,21.694983 0 0 1 24.17351,-18.61678 21.694983,21.694983 0 0 1 18.882745,23.96632 21.694983,21.694983 0 0 1 -23.756201,19.14643"
   sodipodi:open="true"
   sodipodi:end="1.6723082"
   sodipodi:start="1.7165086"
   sodipodi:ry="21.694983"
   sodipodi:rx="21.694983"
   sodipodi:cy="126.55408"
   sodipodi:cx="95.819557"
   sodipodi:type="arc"
   id="path5803"
   style="opacity:0.225;fill:#a061e3;fill-opacity:1;stroke:none;stroke-width:10.63000011;stroke-miterlimit:4;stroke-dasharray:none;stroke-dashoffset:0;stroke-opacity:1" /><path
   style="opacity:0.225;fill:#a061e3;fill-opacity:1;stroke:none;stroke-width:10.63000011;stroke-miterlimit:4;stroke-dasharray:none;stroke-dashoffset:0;stroke-opacity:1"
   id="path5805"
   sodipodi:type="arc"
   sodipodi:cx="30.734608"
   sodipodi:cy="193.44695"
   sodipodi:rx="21.694983"
   sodipodi:ry="21.694983"
   sodipodi:start="1.7165086"
   sodipodi:end="1.6723082"
   sodipodi:open="true"
   d="M 27.584557,214.91202 A 21.694983,21.694983 0 0 1 9.2360354,190.53427 21.694983,21.694983 0 0 1 33.409545,171.9175 21.694983,21.694983 0 0 1 52.292295,195.88382 21.694983,21.694983 0 0 1 28.53609,215.03024" /><path
   d="M 246.3423,115.47668 A 21.694983,21.694983 0 0 1 227.99378,91.098932 21.694983,21.694983 0 0 1 252.16729,72.48216 21.694983,21.694983 0 0 1 271.05004,96.448481 21.694983,21.694983 0 0 1 247.29384,115.5949"
   sodipodi:open="true"
   sodipodi:end="1.6723082"
   sodipodi:start="1.7165086"
   sodipodi:ry="21.694983"
   sodipodi:rx="21.694983"
   sodipodi:cy="94.011604"
   sodipodi:cx="249.49236"
   sodipodi:type="arc"
   id="path5807"
   style="opacity:0.225;fill:#a061e3;fill-opacity:1;stroke:none;stroke-width:10.63000011;stroke-miterlimit:4;stroke-dasharray:none;stroke-dashoffset:0;stroke-opacity:1" /><path
   style="opacity:0.225;fill:#a061e3;fill-opacity:1;stroke:none;stroke-width:10.63000011;stroke-miterlimit:4;stroke-dasharray:none;stroke-dashoffset:0;stroke-opacity:1"
   id="path5809"
   sodipodi:type="arc"
   sodipodi:cx="320.00104"
   sodipodi:cy="142.82532"
   sodipodi:rx="21.694983"
   sodipodi:ry="21.694983"
   sodipodi:start="1.7165086"
   sodipodi:end="1.6723082"
   sodipodi:open="true"
   d="m 316.85099,164.29039 a 21.694983,21.694983 0 0 1 -18.34852,-24.37774 21.694983,21.694983 0 0 1 24.17351,-18.61678 21.694983,21.694983 0 0 1 18.88275,23.96632 21.694983,21.694983 0 0 1 -23.75621,19.14643" /><path
   d="M 358.43305,102.82128 A 21.694983,21.694983 0 0 1 340.08453,78.443529 21.694983,21.694983 0 0 1 364.25804,59.826757 21.694983,21.694983 0 0 1 383.14079,83.793078 21.694983,21.694983 0 0 1 359.38458,102.9395"
   sodipodi:open="true"
   sodipodi:end="1.6723082"
   sodipodi:start="1.7165086"
   sodipodi:ry="21.694983"
   sodipodi:rx="21.694983"
   sodipodi:cy="81.356201"
   sodipodi:cx="361.5831"
   sodipodi:type="arc"
   id="path5811"
   style="opacity:0.225;fill:#a061e3;fill-opacity:1;stroke:none;stroke-width:10.63000011;stroke-miterlimit:4;stroke-dasharray:none;stroke-dashoffset:0;stroke-opacity:1" /><path
   style="opacity:0.225;fill:#a061e3;fill-opacity:1;stroke:none;stroke-width:10.63000011;stroke-miterlimit:4;stroke-dasharray:none;stroke-dashoffset:0;stroke-opacity:1"
   id="path5813"
   sodipodi:type="arc"
   sodipodi:cx="392.31766"
   sodipodi:cy="178.98363"
   sodipodi:rx="21.694983"
   sodipodi:ry="21.694983"
   sodipodi:start="1.7165086"
   sodipodi:end="1.6723082"
   sodipodi:open="true"
   d="m 389.16761,200.4487 a 21.694983,21.694983 0 0 1 -18.34852,-24.37774 21.694983,21.694983 0 0 1 24.1735,-18.61678 21.694983,21.694983 0 0 1 18.88276,23.96632 21.694983,21.694983 0 0 1 -23.75621,19.14643" /></svg>